<svg version="1.0" xmlns="http://www.w3.org/2000/svg" width="1600" height="1200" viewBox="0 0 16000 12000"><g fill="#06050b"><path d="M3806 10569c-4-12-80-661-91-779-4-40-4-42 5-15 13 39 103 795 96 802-3 3-8 0-10-8zM3556 9660c13-13 156-61 162-55 8 7 4 9-80 38-83 29-97 32-82 17zM3587 9575c77-30 122-41 108-28-12 13-133 53-154 52-9 0 12-11 46-24zM3310 9571c0-8 49-121 56-130 2-2 6-2 9 1s-6 29-20 59l-25 54 40 3c57 4 49 22-10 22-27 0-50-4-50-9zM2673 9547c-39-12-74-25-78-29-4-3 19-25 50-48 64-49 87-49 25 0-22 17-40 35-40 38 0 4 27 15 60 25 33 9 60 22 60 27 0 6-1 10-2 9-2 0-35-10-75-22zM3570 9387c-64-88-250-272-350-346-46-34-124-85-173-113-48-27-86-52-83-55 8-9 138 65 236 135 108 76 327 289 384 375 53 78 41 82-14 4zM9091 6367c-1-15 17-177 39-360s45-376 51-429c6-54 15-98 21-98 5 0 6 15 3 33-6 40-82 675-91 772-8 79-22 130-23 82zM1928 5913c-9-10-13-24-11-30 7-19 21-16 19 4 0 12 7 19 22 21 12 2 20 8 17 13-9 14-30 11-47-8zM2260 5792c0-5 9-17 20-27 20-18 70-14 70 6 0 6-7 6-20-1-15-8-24-6-40 10-22 22-30 25-30 12zM9285 5364c-99-34-98-34-92-40s152 40 177 56c27 17-9 11-85-16zM9292 5288c-46-16-81-32-78-35 6-6 167 46 181 58 17 16-19 8-103-23zM9573 5283c26-2 47-8 47-12 0-5-11-34-25-66s-23-60-20-63 6-3 8-1c4 6 37 79 53 117l14 32-62-2c-57-1-58-2-15-5zM9300 5142c0-10 123-167 174-221 77-82 224-207 312-268 107-73 244-149 244-135 0 5-24 22-52 37-223 116-491 347-627 542-33 49-51 64-51 45zM8170 4487c37-40 685-543 689-535 1 5 1 11 0 12-84 70-675 529-687 533-15 5-15 4-2-10zM9297 4092c-32-33-24-52 9-21l22 21 7-21c3-12 11-21 16-21 12 0 2 40-15 58-10 10-17 7-39-16zM10744 1549c-3-5 2-9 10-9 24 0 29-20 10-41-15-17-15-19-1-19 20 0 39 33 31 53-6 18-42 29-50 16zM10290 1440c0-25 21-40 55-40 30 0 55 15 55 32 0 5-9 4-19-2-29-15-62-12-77 8-11 14-13 15-14 2z"/></g><g fill="#201e56"><path d="M3790 10340c0-7 3-10 7-7 3 4 3 10 0 14-4 3-7 0-7-7zM3761 10094c0-11 3-14 6-6 3 7 2 16-1 19-3 4-6-2-5-13zM3740 10070c0-7 3-10 7-7 3 4 3 10 0 14-4 3-7 0-7-7zM3731 9984c0-11 3-14 6-6 3 7 2 16-1 19-3 4-6-2-5-13zM3740 9930c0-7 3-10 7-7 3 4 3 10 0 14-4 3-7 0-7-7zM3720 9900c0-7 3-10 7-7 3 4 3 10 0 14-4 3-7 0-7-7zM3730 9850c0-7 3-10 7-7 3 4 3 10 0 14-4 3-7 0-7-7zM3720 9770c0-7 3-10 7-7 3 4 3 10 0 14-4 3-7 0-7-7zM3533 9603c4-3 10-3 14 0 3 4 0 7-7 7s-10-3-7-7zM3543 9583c4-3 10-3 14 0 3 4 0 7-7 7s-10-3-7-7zM2750 9560c0-7 3-10 7-7 3 4 3 10 0 14-4 3-7 0-7-7zM2655 9480c3-5 8-10 11-10s2 5-1 10c-3 6-8 10-11 10s-2-4 1-10zM2635 9470c3-5 8-10 11-10s2 5-1 10c-3 6-8 10-11 10s-2-4 1-10zM2695 9450c3-5 8-10 11-10s2 5-1 10c-3 6-8 10-11 10s-2-4 1-10zM2675 9440c3-5 8-10 11-10s2 5-1 10c-3 6-8 10-11 10s-2-4 1-10zM3594 9398c-4-7-3-8 4-4 12 7 16 16 8 16-3 0-8-5-12-12zM3484 9288c-4-7-3-8 4-4 12 7 16 16 8 16-3 0-8-5-12-12zM3329 9133c-13-16-12-17 4-4s21 21 13 21c-2 0-10-8-17-17zM3224 9048c-4-7-3-8 4-4 12 7 16 16 8 16-3 0-8-5-12-12zM3124 8978c-4-7-3-8 4-4s12 9 12 12c0 8-9 4-16-8zM2954 8878c-4-7-3-8 4-4 12 7 16 16 8 16-3 0-8-5-12-12zM9080 6380c0-7 3-10 7-7 3 4 3 10 0 14-4 3-7 0-7-7zM9110 6280c0-7 3-10 7-7 3 4 3 10 0 14-4 3-7 0-7-7zM9101 6204c0-11 3-14 6-6 3 7 2 16-1 19-3 4-6-2-5-13zM9120 6190c0-7 3-10 7-7 3 4 3 10 0 14-4 3-7 0-7-7zM9130 6100c0-7 3-10 7-7 3 4 3 10 0 14-4 3-7 0-7-7zM9140 6020c0-7 3-10 7-7 3 4 3 10 0 14-4 3-7 0-7-7zM9130 5960c0-7 3-10 7-7 3 4 3 10 0 14-4 3-7 0-7-7zM9141 5874c0-11 3-14 6-6 3 7 2 16-1 19-3 4-6-2-5-13zM1923 5863c4-3 10-3 14 0 3 4 0 7-7 7s-10-3-7-7zM9160 5850c0-7 3-10 7-7 3 4 3 10 0 14-4 3-7 0-7-7zM9150 5790c0-7 3-10 7-7 3 4 3 10 0 14-4 3-7 0-7-7zM2285 5780c3-5 8-10 11-10s2 5-1 10c-3 6-8 10-11 10s-2-4 1-10zM9161 5704c0-11 3-14 6-6 3 7 2 16-1 19-3 4-6-2-5-13zM9181 5524c0-11 3-14 6-6 3 7 2 16-1 19-3 4-6-2-5-13zM9333 5383c4-3 10-3 14 0 3 4 0 7-7 7s-10-3-7-7zM9375 5030c3-5 8-10 11-10s2 5-1 10c-3 6-8 10-11 10s-2-4 1-10zM9530 4885c30-30 57-55 59-55 3 0-19 25-49 55s-57 55-59 55c-3 0 19-25 49-55zM9605 4790c3-5 8-10 11-10s2 5-1 10c-3 6-8 10-11 10s-2-4 1-10zM9725 4690c3-5 8-10 11-10s2 5-1 10c-3 6-8 10-11 10s-2-4 1-10zM8225 4460c3-5 8-10 11-10s2 5-1 10c-3 6-8 10-11 10s-2-4 1-10zM8205 4450c3-5 8-10 11-10s2 5-1 10c-3 6-8 10-11 10s-2-4 1-10zM8265 4430c3-5 8-10 11-10s2 5-1 10c-3 6-8 10-11 10s-2-4 1-10zM8255 4410c3-5 8-10 11-10s2 5-1 10c-3 6-8 10-11 10s-2-4 1-10zM8315 4390c3-5 8-10 11-10s2 5-1 10c-3 6-8 10-11 10s-2-4 1-10zM8365 4350c3-5 8-10 11-10s2 5-1 10c-3 6-8 10-11 10s-2-4 1-10zM8405 4320c3-5 8-10 11-10s2 5-1 10c-3 6-8 10-11 10s-2-4 1-10zM8395 4300c3-5 8-10 11-10s2 5-1 10c-3 6-8 10-11 10s-2-4 1-10zM8455 4280c3-5 8-10 11-10s2 5-1 10c-3 6-8 10-11 10s-2-4 1-10zM8505 4240c3-5 8-10 11-10s2 5-1 10c-3 6-8 10-11 10s-2-4 1-10zM8555 4200c3-5 8-10 11-10s2 5-1 10c-3 6-8 10-11 10s-2-4 1-10zM8535 4190c3-5 8-10 11-10s2 5-1 10c-3 6-8 10-11 10s-2-4 1-10zM8645 4130c3-5 8-10 11-10s2 5-1 10c-3 6-8 10-11 10s-2-4 1-10zM8635 4110c3-5 8-10 11-10s2 5-1 10c-3 6-8 10-11 10s-2-4 1-10zM8695 4090c3-5 8-10 11-10s2 5-1 10c-3 6-8 10-11 10s-2-4 1-10zM8675 4080c3-5 8-10 11-10s2 5-1 10c-3 6-8 10-11 10s-2-4 1-10zM8735 4060c3-5 8-10 11-10s2 5-1 10c-3 6-8 10-11 10s-2-4 1-10zM9294 4058c-4-7-3-8 4-4s12 9 12 12c0 8-9 4-16-8zM8725 4040c3-5 8-10 11-10s2 5-1 10c-3 6-8 10-11 10s-2-4 1-10zM8785 4020c3-5 8-10 11-10s2 5-1 10c-3 6-8 10-11 10s-2-4 1-10zM8775 4000c3-5 8-10 11-10s2 5-1 10c-3 6-8 10-11 10s-2-4 1-10zM8835 3980c3-5 8-10 11-10s2 5-1 10c-3 6-8 10-11 10s-2-4 1-10zM8825 3960c3-5 8-10 11-10s2 5-1 10c-3 6-8 10-11 10s-2-4 1-10z"/></g><g fill="#302c70"><path d="M1802 11357c-6-7-56-128-111-268-54-140-108-278-120-307l-21-52 55-27c30-15 56-25 58-22 2 2 29 36 60 75l57 71 40 238c22 131 40 250 40 265 0 37-36 53-58 27zM4098 11145c-125-51-233-92-240-91-7 0-43-7-80-18-45-12-68-23-68-33 0-22 30-122 38-127 4-2 49 0 101 5l94 10 205 137c113 76 210 146 216 155 13 20-2 51-25 54-8 1-116-40-241-92zM3790 10510c0-7 3-10 7-7 3 4 3 10 0 14-4 3-7 0-7-7zM3800 10420c0-7 3-10 7-7 3 4 3 10 0 14-4 3-7 0-7-7zM3770 10340c0-7 3-10 7-7 3 4 3 10 0 14-4 3-7 0-7-7zM3750 10170c0-7 3-10 7-7 3 4 3 10 0 14-4 3-7 0-7-7zM3770 10170c0-7 3-10 7-7 3 4 3 10 0 14-4 3-7 0-7-7zM3740 10090c0-7 3-10 7-7 3 4 3 10 0 14-4 3-7 0-7-7zM3730 10010c0-7 3-10 7-7 3 4 3 10 0 14-4 3-7 0-7-7zM3750 10000c0-7 3-10 7-7 3 4 3 10 0 14-4 3-7 0-7-7zM3720 9920c0-7 3-10 7-7 3 4 3 10 0 14-4 3-7 0-7-7zM3740 9910c0-7 3-10 7-7 3 4 3 10 0 14-4 3-7 0-7-7zM3710 9830c0-7 3-10 7-7 3 4 3 10 0 14-4 3-7 0-7-7zM3730 9830c0-7 3-10 7-7 3 4 3 10 0 14-4 3-7 0-7-7zM3706 9748c3-5 10-6 15-3 13 9 11 12-6 12-8 0-12-4-9-9zM3459 9263c-13-16-12-17 4-4 9 7 17 15 17 17 0 8-8 3-21-13zM3420 9193l-55-58 58 55c31 30 57 56 57 57 0 8-10-1-60-54zM3354 9158c-4-7-3-8 4-4s12 9 12 12c0 8-9 4-16-8zM2592 8879c-43-115-74-210-71-213 2-3 20-1 38 3 33 6 36 10 64 95l29 88-25 26-26 26-9-25zM8493 7099c-25-25-12-48 51-93 36-25 68-46 71-46 4 0 25-15 48-33s98-70 167-114c124-81 126-82 205-88 44-3 91-8 105-11 24-4 27 0 49 66 12 39 20 77 18 84-5 13-105 42-172 51-28 3-122 39-270 102-66 28-97 41-135 56-14 5-32 13-41 17-33 17-84 21-96 9zM9073 6592l-191-97 21-41 22-41 189 93c104 52 191 96 193 98 4 4-35 87-40 85-1 0-88-44-194-97zM1714 6318c3-13 9-33 12-45l6-23-56 26c-79 36-90 32-97-41-4-48-13-72-42-114-20-29-37-59-37-65 0-7-19-17-42-23-44-12-128-67-128-84 0-5 14-12 31-16 39-7 43-20 24-66-25-59-19-126 15-191l30-56-20-61c-11-33-18-64-15-69 3-4 23-1 45 7l41 16 37-36c25-24 53-40 87-48 99-23 98-22 90-84-8-64-7-64 85-38 55 15 63 15 97 0 73-31 276-32 355-2 8 3 22-1 31-9 21-22 42-11 83 42 27 36 34 54 34 90 0 65-33 103-128 148-102 50-217 160-227 220-8 50-18 68-39 72-11 2-19-4-23-17-7-26-34-27-56-3-23 25-21 53 5 103l21 41-21 87c-11 47-23 101-26 119-9 51-39 85-100 115-68 33-80 34-72 5zM9090 6280c0-7 3-10 7-7 3 4 3 10 0 14-4 3-7 0-7-7zM9120 6210c0-7 3-10 7-7 3 4 3 10 0 14-4 3-7 0-7-7zM9131 6124c0-11 3-14 6-6 3 7 2 16-1 19-3 4-6-2-5-13zM9110 6110c0-7 3-10 7-7 3 4 3 10 0 14-4 3-7 0-7-7zM9140 6040c0-7 3-10 7-7 3 4 3 10 0 14-4 3-7 0-7-7zM9120 6030c0-7 3-10 7-7 3 4 3 10 0 14-4 3-7 0-7-7zM9151 5954c0-11 3-14 6-6 3 7 2 16-1 19-3 4-6-2-5-13zM9130 5940c0-7 3-10 7-7 3 4 3 10 0 14-4 3-7 0-7-7zM9160 5870c0-7 3-10 7-7 3 4 3 10 0 14-4 3-7 0-7-7zM9140 5850c0-7 3-10 7-7 3 4 3 10 0 14-4 3-7 0-7-7zM9170 5780c0-7 3-10 7-7 3 4 3 10 0 14-4 3-7 0-7-7zM9150 5770c0-7 3-10 7-7 3 4 3 10 0 14-4 3-7 0-7-7zM9190 5610c0-7 3-10 7-7 3 4 3 10 0 14-4 3-7 0-7-7zM9170 5600c0-7 3-10 7-7 3 4 3 10 0 14-4 3-7 0-7-7zM9200 5530c0-7 3-10 7-7 3 4 3 10 0 14-4 3-7 0-7-7zM9363 5393c4-3 10-3 14 0 3 4 0 7-7 7s-10-3-7-7zM9394 5308c-4-7-3-8 4-4 12 7 16 16 8 16-3 0-8-5-12-12zM9553 5293c15-2 39-2 55 0 15 2 2 4-28 4s-43-2-27-4zM9553 5273c15-2 37-2 50 0 12 2 0 4-28 4-27 0-38-2-22-4zM9405 4990c3-5 8-10 11-10s2 5-1 10c-3 6-8 10-11 10s-2-4 1-10zM7830 4884c-36-20-69-41-75-48-5-7-120-59-255-116s-251-108-258-113c-17-13-11-47 10-61 12-7 46-5 125 11 59 12 184 37 276 55l169 33 76 64c42 35 78 68 79 75 3 14-59 129-72 133-5 1-39-13-75-33zM8007 4632c-37-108-67-200-67-203 0-8 81-32 87-25 3 2 27 69 53 148 27 79 57 168 68 198l21 55-32 12c-60 22-58 25-130-185zM9635 4790c3-5 8-10 11-10s2 5-1 10c-3 6-8 10-11 10s-2-4 1-10zM9625 4770c3-5 8-10 11-10s2 5-1 10c-3 6-8 10-11 10s-2-4 1-10zM10389 4524l-24-25 34-99c35-101 43-110 97-110 20 0 19 6-25 130-25 71-49 130-52 130s-16-12-30-26zM10273 1954c-25-25-25-29-20-107 8-115 21-154 59-173 59-31 142-18 221 33 37 24 59 9 70-48 10-56 1-172-19-241-19-62-87-138-125-138-54 0-140-34-184-72-55-48-69-90-64-189 6-102 56-207 137-289 98-98 166-89 281 36l59 64 23-47c13-27 31-48 39-48s34 39 60 89l45 90 60 16c86 24 158 55 218 93 58 38 123 105 137 143 15 39 11 131-9 229-39 182-147 475-176 475-20 0-122-79-209-162l-78-75 7-72c7-67 5-74-16-97-23-25-72-33-84-14-4 6-2 25 4 43 6 17 18 81 26 140 14 104 14 111-4 152-26 59-92 120-154 143-48 18-217 52-259 52-10 0-31-12-45-26z"/></g><g fill="#262789"><path d="M1788 10596c-64-118-66-122-48-141 10-11 194-225 410-475l392-455-69-60c-116-101-252-236-319-316-35-43-64-79-64-81 0-3 98 45 217 105 271 137 457 223 643 298 86 34 146 64 148 73 9 44-116 197-309 377-207 192-659 580-869 746l-65 51-67-122zm972-1035c0-5-24-17-52-26-29-9-59-19-67-21-9-3 0-15 28-36 41-32 51-48 30-48-16 0-104 70-104 83 0 6 32 21 70 34 78 25 95 27 95 14zM8484 7098c-4-7-3-8 4-4 12 7 16 16 8 16-3 0-8-5-12-12zM8625 6950c3-5 8-10 11-10s2 5-1 10c-3 6-8 10-11 10s-2-4 1-10zM8913 6953c4-3 10-3 14 0 3 4 0 7-7 7s-10-3-7-7zM8123 4678c-50-139-75-218-71-227 2-5 75-60 163-122 198-139 369-267 501-375l101-83 19 34c10 19 16 36 14 38-3 2-158 124-345 271-299 235-370 298-338 295 4 0 163-123 353-273l345-273 37 42c57 65 77 70 238 59 76-5 136-7 134-5-2 3 7 16 20 30l25 26-571 320c-313 176-576 321-583 323-8 2-24-28-42-80zM9883 4390c-237-90-427-181-509-243l-41-31 16-31c9-16 17-31 17-33 3-6 808-61 813-56 3 3-9 18-27 35-18 16-32 36-32 43 0 17 51 37 168 66 50 12 92 25 92 29s-15 15-32 26c-18 10-108 67-200 125l-166 107-99-37zM9310 4065c-10-13-9-15 8-15 15 0 20 5 16 15-4 8-7 15-9 15-1 0-8-7-15-15zM9804 3710c41-13 70-16 100-11l41 7-59 12c-33 7-78 12-100 11l-41-1 59-18z"/></g><g fill="#4b4ccf"><path d="M3650 10765c-5-14-10-30-10-35s-29-109-64-232-89-315-121-428c-31-113-75-267-96-342-22-75-39-139-39-142s23-6 50-6c28 0 50-4 50-10 0-5-20-10-45-10h-45l19-37c25-51 34-83 23-83-5 0-22 29-38 65-34 76-32 75-165 40-172-45-444-162-844-363-126-63-232-114-234-113-2 2-7-2-10-7s-49-33-101-61c-68-36-88-51-70-51 33 0 120-42 144-69 17-18 26-21 63-15 39 6 46 3 70-23 16-17 34-47 42-69 58-168 72-193 118-215 24-11 65-22 91-22 39-2 54 3 82 26 23 20 41 27 58 24 36-7 241 83 342 150 462 306 758 576 847 769 23 50 26 74 34 232 11 233 43 475 105 791 13 69 24 129 24 134 0 8-201 107-247 121-19 6-25 2-33-19zm125-607c-25-216-48-399-50-406-3-7-9-11-13-8-5 3-5 33-1 68 5 35 27 218 49 407 38 323 50 391 58 349 2-9-17-194-43-410zm-133-514c43-14 78-30 78-35s-3-9-7-9c-19 0-163 54-163 62 0 12 7 10 92-18zm-20-63c64-21 96-41 66-41-29 0-152 47-156 60-3 8 1 11 9 8s44-15 81-27zm-26-189c-93-134-271-305-428-410-107-71-205-124-212-113-3 5 27 27 66 49 213 118 402 282 552 481 44 59 64 53 22-7zm-973-628c-28-85-31-89-64-95-18-4-36-6-38-3-3 3 28 98 71 213l9 25 26-26 25-26-29-88zM4435 9387c-17-8-45-31-63-51-26-29-32-45-32-80 0-96 64-115 180-55 62 32 70 34 178 35 62 1 115 4 118 7 8 8-117 94-178 122-68 31-161 41-203 22zm318-116c76-30 69-37-9-10-70 26-190 36-233 21-17-6-31-7-31-2 0 15 31 19 125 16 66-2 106-8 148-25zM6770 9213c-61-9-120-29-190-62-94-45-219-165-268-258-38-73-72-196-72-265 0-56-20-102-53-119-128-66-638-368-659-390-35-37-38-88-5-122 12-14 96-67 187-119 555-316 530-298 530-392 0-28 7-79 16-115 63-258 274-440 546-471 61-7 405-10 998-8l905 3-113 78c-101 70-113 81-110 105 5 47 40 39 294-64 132-53 253-98 269-100 17-1 46-8 65-13 48-15 1445-15 1559 0 213 26 398 157 490 345 59 122 61 143 61 818 0 578-1 617-20 690-51 201-197 355-417 439l-58 22-1965 1c-1081 1-1976 0-1990-3zm3886-546c32-37 32-87 0-124l-24-28-1929-3c-1438-2-1935 1-1956 9-29 12-57 55-57 86 1 28 25 64 51 79 20 11 365 13 1957 11l1934-2 24-28zm0-370c32-37 32-87 0-124l-24-28-1929-3c-1438-2-1935 1-1956 9-29 12-57 55-57 86 1 28 25 64 51 79 20 11 365 13 1957 11l1934-2 24-28zm-3351-343c71-25 156-111 184-187 59-161-13-338-168-414-74-37-190-39-263-6-169 78-246 277-169 438s242 228 416 169zm3295-9c55-28 60-105 10-150-22-20-38-20-1424-23-1041-2-1408 1-1429 9-29 12-57 55-57 86 1 28 25 64 51 79 20 11 281 13 1422 14 1216 0 1402-2 1427-15zm-1604-388c43-50 27-121-33-146-21-8-188-11-620-9-583 3-593 3-613 24-45 45-32 131 23 154 12 5 286 8 620 7l599-2 24-28zM4725 9015c-50-49-22-145 55-187 57-31 150-22 241 25 41 21 92 53 114 72l40 35-45-20c-55-23-130-41-130-30 0 4 17 10 38 14 20 3 59 16 85 28l49 23-105-3c-102-4-106-3-182 32-92 43-127 45-160 11zm184-101c14-13-12-13-40 0l-34 16 35-6c19-4 37-8 39-10zm59-11c-10-2-26-2-35 0-10 3-2 5 17 5s27-2 18-5zM12472 6873c-87-129-114-188-120-259-6-81 10-125 67-182 53-53 144-101 306-161 130-49 173-75 181-107 5-19-17-74-89-222-107-219-123-262-139-368-27-170 52-338 189-407 75-38 140-47 342-47 312 0 320-5 479-316 60-116 130-244 157-285 173-268 343-381 523-348 162 30 182 86 105 304-84 241-109 395-79 498 10 35 43 95 83 155 90 131 116 207 117 337 0 90-3 107-29 163-39 87-100 138-265 222-169 86-216 120-241 173-29 65-24 111 35 293 30 93 60 198 66 234 30 167-33 273-215 360-73 35-145 58-145 47 0-2 28-14 63-27 138-49 239-126 273-206 8-18 14-58 14-89 0-46-3-55-18-55-9 0-118 26-242 59-124 32-326 84-450 116-124 31-245 63-270 69-44 11-46 14-64 71-11 33-21 54-24 47-2-7 8-48 23-90 62-175 170-354 307-506 63-70 168-207 168-221 0-3-62-92-137-196-76-105-156-216-179-247-79-110-215-298-287-397-39-54-75-103-78-108-19-28-145 90-181 170-18 40-22 67-23 158 0 140 18 199 137 435 129 254 128 255-104 345-225 88-303 137-344 217l-26 50 29 32c62 66 309 342 322 359 12 15 12 17 0 11-8-3-63-60-122-127s-135-151-168-187l-61-65 6 48c7 56 28 99 113 231 35 54 62 100 59 103-2 3-31-35-64-84zm1148-178c250-64 472-121 493-126 44-12 47 8-30-238-60-189-67-253-38-314 26-56 71-89 237-173 254-130 303-196 296-398-1-58-6-108-10-112-11-10-701 86-714 100-6 6-19 52-29 101-23 121-96 340-149 450-63 128-128 224-246 361-136 156-222 290-284 437-14 36-14 38 2 33 9-3 222-58 472-121zm31-697c94-187 154-394 214-738 47-271 93-440 154-565 47-96 50-107 71-268 12-92 20-171 17-174-10-9-86 56-136 117-91 109-177 252-306 509-75 151-114 199-188 232-49 21-66 23-267 24-204 1-284 8-295 25-2 4 26 49 63 101 121 169 223 310 386 534 87 121 173 239 189 263 17 23 34 42 39 42 4 0 31-46 59-102zm569-637c330-48 335-49 332-71-2-24-46-98-112-190-54-75-70-128-70-226 0-106 17-183 79-371 58-171 64-223 29-223-79 0-233 120-343 266-136 181-184 310-250 679-14 77-27 150-30 163-4 16-1 22 12 22 10 0 169-22 353-49zm-73-851c116-148 211-219 326-244 23-6 26-9 17-26-5-10-36-28-67-40-75-28-186-24-250 9-24 12-43 25-43 29s-12 79-25 167c-14 88-25 167-25 175 0 16-1 17 67-70zM9124 6511l-151-76 14-70c60-314 112-711 122-925 7-159 9-169 40-235 83-179 313-405 683-671 73-53 136-100 139-106 3-5 9-9 13-8 4 0 80-46 169-103s180-114 202-126l40-23 87 32c169 61 317 180 417 335 25 39 65 91 88 116l44 47-43 25c-77 44-539 273-703 347-269 122-473 196-591 213l-41 7-32-75c-19-41-37-75-42-75-14 0-11 14 16 72l25 53-45 3c-31 2-45 8-45 18s14 14 54 14h54l-18 63c-22 75-255 899-307 1088l-38 135-151-75zm7-347c81-671 84-702 63-681-4 4-28 190-55 414-26 225-50 427-53 451-4 32-3 43 7 39 8-2 21-77 38-223zm247-776c-5-13-141-67-170-67-40-2-13 16 70 46 101 36 105 37 100 21zm27-77c-12-10-164-61-185-61-28 0 6 20 75 44 71 25 127 34 110 17zm-26-246c131-171 341-356 537-471 125-74 130-77 116-82-26-8-242 127-367 229-141 115-365 365-365 405 0 8 2 14 4 14s36-43 75-95zm1092-645c44-124 45-130 25-130-54 0-62 9-97 110l-34 99 24 25c14 14 27 26 30 26s27-59 52-130zM8087 2274c-3-10-8-32-11-47-11-47-47-137-56-137-4 0 3 26 15 58 28 68 41 132 28 132-6 0-29-13-51-30-84-60-119-150-108-273 7-83 15-117 27-117 20 0 133 118 157 164 23 44 27 63 27 141 0 89-16 152-28 109z"/></g><g fill="#cf4e5c"><path d="M2217 6310c-18-29-18-30 2-30 17 0 21 6 21 30 0 17-1 30-3 30-1 0-11-13-20-30zM6189 5661c-31-31-38-75-18-113 27-50-25-48 1509-48h1431l-6 53c-3 28-8 71-11 95l-5 42H6218l-29-29zM9530 5683c0-5 7-30 15-58 9-27 20-67 26-87l10-38h240c255 0 296 6 318 48 20 38 13 82-18 113l-29 29h-281c-155 0-281-3-281-7zM6189 5291c-50-50-33-127 33-150 32-11 2958-17 2958-6 0 3-11 27-24 53s-29 66-35 90l-12 42H6218l-29-29zM9636 5306c3-8 32-19 69-25 82-15 173-42 304-93l104-41 19 23c28 35 23 86-11 121l-29 29h-231c-194 0-230-2-225-14zM7199 4921c-32-33-37-67-14-110 22-43 60-51 245-51 167 0 168 0 241 32 41 18 79 38 84 45 6 6 40 28 78 48 78 43 80 42 121-44 20-42 38-63 57-71 34-15 46-8 54 30 7 33 12 35 65 19 31-10 36-15 32-35l-4-24h1375l-99 95-99 94-1053 1H7228l-29-29z"/></g><g fill="#c37663"><path d="M3825 10880c-38-4-74-5-80-2-5 3-7 2-4-2 4-4-1-29-12-55l-18-48 90-41c49-22 91-37 93-34 2 4 11 41 20 82s19 83 22 93c6 19 6 19-111 7zM1720 10754c-29-37-53-72-54-78-2-20 75-159 83-150 5 5 30 50 56 99l48 91-34 52c-18 29-36 52-40 52-3 0-29-30-59-66zM1900 6408c0-13-7-53-14-90-10-43-12-78-6-100 4-18 18-76 30-130l23-96-22-41c-26-51-27-83-3-104 25-23 49-21 55 4 4 13 12 19 23 17 21-4 31-22 39-72 9-55 127-174 209-210 32-14 62-26 66-26s19 40 33 88c23 77 34 97 84 151 55 62 56 64 44 95-7 17-18 48-24 70l-12 38-53-4-52-5 21 23c12 13 34 26 50 29 17 4 29 13 30 23 4 56-5 148-15 154-6 4-36 13-66 19s-59 15-65 19c-5 5-25 12-43 17l-32 8 25 37c36 53 33 64-22 71-27 4-93 13-148 21-141 22-155 21-155-6zm75-487c3-5-5-11-17-13-17-2-22-9-21-26 3-27-13-29-20-2-9 33 41 68 58 41zm316-137c9-11 22-14 42-10 25 5 28 4 17-9-7-8-22-15-33-15-21 0-57 26-57 42 0 13 17 9 31-8zM3668 6040c-27-32-48-61-48-65s29-44 64-90c83-107 172-238 180-263 4-11 13-23 22-26 22-8 34 33 27 98-5 45-3 56 9 56 25 0 132-58 175-95 23-19 47-35 53-35 21 0 4 92-29 158-49 97-110 153-264 242-75 44-138 80-140 79-1 0-23-26-49-59zM10396 1581c-33-36 10-94 53-72 27 15 34 41 16 67-19 29-46 31-69 5zM10720 1550c0-5 5-10 11-10 5 0 7 5 4 10-3 6-8 10-11 10-2 0-4-4-4-10zM10765 1530c3-5 8-10 11-10s2 5-1 10c-3 6-8 10-11 10s-2-4 1-10z"/></g><g fill="#ff7386"><path d="M4882 10070c0-14 2-19 5-12 2 6 2 18 0 25-3 6-5 1-5-13zM4872 10015c0-16 2-22 5-12 2 9 2 23 0 30-3 6-5-1-5-18zM4882 9960c0-14 2-19 5-12 2 6 2 18 0 25-3 6-5 1-5-13zM4890 9920c0-7 3-10 7-7 3 4 3 10 0 14-4 3-7 0-7-7zM4900 9891c0-6 4-13 10-16s7 1 4 9c-7 18-14 21-14 7zM4920 9856c0-2 8-10 18-17 15-13 16-12 3 4s-21 21-21 13zM4959 9807c8-10 28-28 45-40 23-16 27-17 17-4-8 10-28 28-45 40-23 16-27 17-17 4zM5045 9740c3-5 8-10 11-10s2 5-1 10c-3 6-8 10-11 10s-2-4 1-10zM5159 9682c11-8 8-11-15-15-21-3-17-4 16-6 25 0 74-6 109-11 90-15 86-6-6 13-43 8-87 18-98 22-15 5-17 4-6-3zM5063 9653c9-2 25-2 35 0 9 3 1 5-18 5s-27-2-17-5zM5018 9643c7-3 16-2 19 1 4 3-2 6-13 5-11 0-14-3-6-6zM4983 9633c4-3 10-3 14 0 3 4 0 7-7 7s-10-3-7-7zM5358 9633c7-3 16-2 19 1 4 3-2 6-13 5-11 0-14-3-6-6zM4918 9610c-20-11-39-24-43-29-4-8 77 32 94 46 13 10-19-1-51-17zM5393 9623c4-3 10-3 14 0 3 4 0 7-7 7s-10-3-7-7zM5423 9613c4-3 10-3 14 0 3 4 0 7-7 7s-10-3-7-7zM5453 9603c4-3 10-3 14 0 3 4 0 7-7 7s-10-3-7-7zM5510 9580c8-5 20-10 25-10 6 0 3 5-5 10s-19 10-25 10c-5 0-3-5 5-10zM5550 9565c0-2 27-18 60-35s60-28 60-25c0 2-27 18-60 35s-60 28-60 25zM6102 9535c-38-17-66-71-56-111 8-33 53-60 121-74 62-13 156-72 202-126l33-39-27 54c-33 66-106 146-160 174-22 11-34 22-27 24 21 8 99-45 139-93 21-24 50-68 66-96 32-61 33-55 7 41-59 210-169 302-298 246zM5695 9485c11-9 29-21 40-26l20-10-20 16c-11 9-29 21-40 26l-20 10 20-16zM5784 9428c178-140 239-193 342-292 97-94 116-117 104-126-18-12-1-13 18-1 23 14-290 305-438 405-30 21-42 27-26 14zM4498 9293c-10-2-18-8-18-13s14-4 31 2c64 22 276-15 300-53 4-6 13-9 20-7 17 6-33 33-109 59-52 18-177 25-224 12zM4875 9195c30-26 65-49 65-42 0 2-21 18-47 36-36 25-41 26-18 6zM4955 9140c3-5 8-10 11-10s2 5-1 10c-3 6-8 10-11 10s-2-4 1-10zM4980 9125c0-2 10-10 23-16 20-11 21-11 8 4-13 16-31 23-31 12zM6513 9123c4-3 10-3 14 0 3 4 0 7-7 7s-10-3-7-7zM6483 9113c4-3 10-3 14 0 3 4 0 7-7 7s-10-3-7-7zM6453 9103c4-3 10-3 14 0 3 4 0 7-7 7s-10-3-7-7zM5030 9095c0-8 122-67 127-61 3 3-6 10-20 15-15 6-44 20-67 31-22 11-40 18-40 15zM6390 9080c-8-5-10-10-5-10 6 0 17 5 25 10s11 10 5 10c-5 0-17-5-25-10zM6320 9049c-26-15-29-18-10-13 27 7 71 34 55 34-6-1-26-10-45-21zM5193 9013c4-3 10-3 14 0 3 4 0 7-7 7s-10-3-7-7zM5151 8967c-41-20-92-40-113-43-21-4-38-10-38-14 0-20 157 35 210 72 42 31 17 24-59-15zM5243 8993c4-3 10-3 14 0 3 4 0 7-7 7s-10-3-7-7zM6193 8993c4-3 10-3 14 0 3 4 0 7-7 7s-10-3-7-7zM5273 8983c4-3 10-3 14 0 3 4 0 7-7 7s-10-3-7-7zM5303 8973c4-3 10-3 14 0 3 4 0 7-7 7s-10-3-7-7zM6143 8973c4-3 10-3 14 0 3 4 0 7-7 7s-10-3-7-7zM5333 8963c4-3 10-3 14 0 3 4 0 7-7 7s-10-3-7-7zM6108 8963c7-3 16-2 19 1 4 3-2 6-13 5-11 0-14-3-6-6zM5368 8953c7-3 16-2 19 1 4 3-2 6-13 5-11 0-14-3-6-6zM5990 8939c-57-14-64-17-28-13 47 5 147 32 118 32-8 0-49-9-90-19zM5408 8943c7-3 16-2 19 1 4 3-2 6-13 5-11 0-14-3-6-6zM5448 8933c6-2 18-2 25 0 6 3 1 5-13 5s-19-2-12-5zM4869 8914c18-8 36-13 39-10 8 9 0 13-38 20l-35 6 34-16zM5503 8923c9-2 23-2 30 0 6 3-1 5-18 5-16 0-22-2-12-5zM5578 8913c12-2 30-2 40 0 9 3-1 5-23 4-22 0-30-2-17-4zM5848 8913c12-2 30-2 40 0 9 3-1 5-23 4-22 0-30-2-17-4zM4933 8903c9-2 25-2 35 0 9 3 1 5-18 5s-27-2-17-5zM5708 8903c12-2 32-2 45 0 12 2 2 4-23 4s-35-2-22-4zM5058 8053c-16-2-28-9-28-14s10-7 23-4c12 3 51 10 87 14l65 8h-60c-33 0-72-2-87-4zM4798 7944c-38-25-68-50-68-55s30 11 66 36 69 45 75 45c5 0 9 5 9 10 0 17-12 11-82-36zM4608 7763c-24-28-81-133-75-139 3-3 13 9 23 28 9 18 30 52 46 76 30 44 34 67 6 35zM4476 7443c-3-21-5-63-5-93l2-55 8 65c4 36 10 77 13 93 3 15 2 27-3 27s-11-17-15-37zM11600 7463c-228-79-294-365-123-537 91-93 237-118 358-63 100 47 154 111 181 219 38 147-37 299-181 368-73 35-159 40-235 13zm220-203c0-29-1-30-51-30h-52l52-54c60-65 65-93 22-137-34-33-83-39-130-14-47 24-56 71-15 81 19 5 29 1 40-15 17-23 34-27 52-9 16 16 2 37-63 99-42 39-55 59-55 80v29h200v-30zM4480 7133c0-30 39-153 49-153 8 0-34 158-44 169-3 2-5-5-5-16zM4610 6833c0-15 106-130 113-123 3 3-22 34-54 70s-59 60-59 53zM4860 6621c0-9 83-47 133-62 15-4 27-4 27 0s-19 13-42 20c-24 7-58 21-76 32-37 21-42 23-42 10zM5180 6540c0-6 35-10 85-10s85 4 85 10-35 10-85 10-85-4-85-10zM5510 6540c0-6 37-10 91-10 57 0 88 4 84 10-3 6-44 10-91 10-49 0-84-4-84-10zM5840 6540c0-6 37-10 90-10s90 4 90 10-37 10-90 10-90-4-90-10zM6170 6540c0-6 37-10 90-10s90 4 90 10-37 10-90 10-90-4-90-10zM6505 6540c-4-6 27-10 84-10 54 0 91 4 91 10s-35 10-84 10c-47 0-88-4-91-10zM6840 6540c0-6 37-10 91-10 57 0 88 4 84 10-3 6-44 10-91 10-49 0-84-4-84-10zM7170 6540c0-6 37-10 90-10s90 4 90 10-37 10-90 10-90-4-90-10zM7500 6540c0-6 37-10 90-10s90 4 90 10-37 10-90 10-90-4-90-10zM7835 6540c-4-6 27-10 84-10 54 0 91 4 91 10s-35 10-84 10c-47 0-88-4-91-10zM8170 6540c0-6 37-10 91-10 57 0 88 4 84 10-3 6-44 10-91 10-49 0-84-4-84-10zM8500 6540c0-6 37-10 90-10s90 4 90 10-37 10-90 10-90-4-90-10zM8830 6540c0-13 120-13 140 0 10 7-9 10-62 10-46 0-78-4-78-10zM9290 6540c0-5 11-10 25-10s25 5 25 10c0 6-11 10-25 10s-25-4-25-10zM9500 6540c0-6 37-10 91-10 57 0 88 4 84 10-3 6-44 10-91 10-49 0-84-4-84-10zM9830 6540c0-6 37-10 91-10 57 0 88 4 84 10-3 6-44 10-91 10-49 0-84-4-84-10zM10160 6540c0-6 37-10 90-10s90 4 90 10-37 10-90 10-90-4-90-10zM10495 6540c-4-6 27-10 84-10 54 0 91 4 91 10s-35 10-84 10c-47 0-88-4-91-10zM10830 6540c0-6 37-10 91-10 57 0 88 4 84 10-3 6-44 10-91 10-49 0-84-4-84-10zM11160 6540c0-6 37-10 90-10s90 4 90 10-37 10-90 10-90-4-90-10zM11490 6540c0-6 37-10 90-10s90 4 90 10-37 10-90 10-90-4-90-10zM11824 6533c4-4 31-13 59-19 29-6 66-14 82-19 21-5 27-4 20 3-11 11-121 42-151 42-9 0-14-3-10-7zM12130 6414c0-10 113-124 123-124 14 0-41 65-83 99-22 17-40 29-40 25zM6335 6195c-207-46-385-206-456-410l-24-70-3-635c-2-554-1-644 13-708 45-201 204-379 405-453 64-23 70-23 506-27l442-3 108-98c134-121 137-124 179-202 19-35 35-60 35-56s-7 22-16 38c-27 53-9 42 59-33 79-90 127-141 106-113-78 102-277 306-413 423l-49 42h1568l-30 25c-105 87-305 239-458 348l-177 128-456 2-456 2-24 28c-39 45-33 92 19 148 37 40 63 55 207 115l165 69-175 5c-96 3-183 9-193 14-23 11-47 58-47 91 0 16 12 38 29 56l29 29h2103l-55 64c-30 36-62 76-72 90l-16 26H7720c-1020 0-1476 3-1498 11-66 23-83 100-33 150l29 29h2892v180H7680c-1534 0-1482-2-1509 48-20 38-13 82 18 113l29 29h1436c934 0 1436 3 1436 10 0 14-48 340-63 430l-13 75-1309 2c-1057 1-1322-1-1370-12zm463-1259c68-35 119-88 155-164 27-58 29-70 25-145-5-94-26-144-90-213-61-67-135-98-233-98-96-1-169 28-233 92-51 51-72 91-88 169-35 165 58 326 219 379 65 22 182 12 245-20zM9380 6208c1-2 34-118 74-258l72-255 288-5 288-5 24-28c26-30 31-75 13-109-22-42-63-48-318-48h-240l20-72c11-40 22-81 25-90 5-17 25-18 235-18h231l29-29c33-34 39-83 13-119-9-13-14-25-13-27 2-1 80-37 174-80 93-42 297-141 453-219l283-144 57 34c31 19 64 34 74 34s78 35 151 77c72 42 151 87 174 101 62 34 86 69 79 111-3 19-13 43-23 52-15 15-140 90-431 258-35 20-71 41-80 46-9 6-52 30-95 53-86 48-107 76-107 142 0 55-27 175-52 230-30 67-100 161-159 214-68 61-215 133-299 146-54 8-941 15-940 8zM12332 6148c32-120 44-158 49-158 8 0-13 98-30 143-10 27-26 39-19 15zM12384 5740c0-52 1-74 3-47 2 26 2 68 0 95-2 26-3 4-3-48zM12350 5488c0-7-14-42-30-77-32-66-35-90-6-47 14 23 56 120 56 131 0 3-4 5-10 5-5 0-10-6-10-12zM12155 5204c-16-14-49-37-73-51s-41-28-38-31c7-6 112 57 133 81 25 27 11 28-22 1zM11795 5070c-16-7-11-9 20-9 22 0 49 4 60 9 16 7 11 9-20 9-22 0-49-4-60-9z"/><path d="M8195 4747c57-39 1117-627 1130-627 8 0 36 16 62 36 60 46 246 136 436 211 81 32 146 61 145 65-2 3-63 49-136 102s-169 125-214 161l-81 65h-681c-573 0-677-2-661-13zM7660 4614c-63-13-119-26-125-28-5-3 80-5 190-5l200-1-47 30c-56 35-67 35-218 4zM5500 4404c0-82-4-165-10-183-5-19-8-36-6-38s63 5 136 17c121 18 153 19 139 5-3-2-68-14-144-25s-140-21-141-23c-1-1-12-22-24-47-12-24-47-70-77-102l-55-57 53-97 54-97 98 6c57 4 97 2 97-3s-43-11-94-12l-95-3 62-130c35-71 78-167 97-212 23-56 39-83 50-83 22 0 273-19 338-25l52-5v62c0 76-13 169-42 307l-21 104-149-6c-81-3-148-3-148 2s63 10 140 13 143 8 146 10c17 18-143 369-222 484-63 93-165 222-203 258l-31 30v-150zM3121 4299c-122-24-210-108-247-235-42-144 33-307 174-376 62-30 172-36 239-14 199 66 284 315 168 489-72 106-208 162-334 136zm214-203c55-23 72-79 36-115-17-17-18-21-5-32 10-8 14-26 12-48-3-31-9-39-41-55-33-16-45-17-78-7-35 11-59 34-59 59 0 17 54 22 63 6 10-18 43-18 50 0 7 19-12 36-40 36-18 0-23 6-23 25 0 18 5 25 19 25 32 0 51 11 51 30 0 26-37 36-60 15-20-18-70-11-70 10 0 23 60 62 98 64 7 1 28-5 47-13zm-225-126v-130h-28c-34 0-115 57-105 73 19 34 25 36 49 20l24-15v182h60v-130zM5220 3909c-41-15-94-28-116-28-46-1-48-4-138-154-24-40-97-161-164-271l-121-199 24-31c22-28 181-172 225-203 14-10 20-10 28 0 11 14 384 622 420 686l26 45-49 93c-26 51-51 92-54 92-3-1-40-14-81-30zM4330 3862c0-36 42-166 74-229l33-66 20 29c11 16 57 86 102 157l81 127h-155c-142 0-155-2-155-18zM4636 3843c-13-21-60-96-105-166l-82-128 22-37c30-49 140-191 171-220l25-23 90 148c50 81 134 219 186 306l97 157h-380l-24-37zM5219 3414c-107-174-207-339-223-367l-30-50 40-33c21-19 47-36 56-39s49 11 90 32c40 21 75 39 78 41 3 1 4-42 2-96-4-98-4-98 23-116 15-10 31-14 35-9 23 25 314 530 313 543-3 27-177 410-187 410-2 0-91-142-197-316zM7540 3515c0-5 5-17 10-25s10-10 10-5c0 6-5 17-10 25s-10 11-10 5zM7561 3454c0-11 3-14 6-6 3 7 2 16-1 19-3 4-6-2-5-13zM7570 3420c0-7 3-10 7-7 3 4 3 10 0 14-4 3-7 0-7-7zM7581 3374c0-11 3-14 6-6 3 7 2 16-1 19-3 4-6-2-5-13zM7760 3323c29-40 54-73 57-73 7 0-78 118-95 132-8 7 9-20 38-59zM7592 3290c0-19 2-27 5-17 2 9 2 25 0 35-3 9-5 1-5-18zM5654 3243c12-32 40-114 61-183s43-130 47-136c5-7 55-15 113-19s105-11 105-16c0-11-41-11-135 0-38 5-71 7-73 6-5-4 52-208 94-338 20-60 34-111 31-113-4-5-137 395-137 414 0 31-18 4-55-81-70-164-88-202-92-190-3 7 25 79 61 161s66 158 66 168c0 19-105 336-120 363-6 11-12 6-25-20-10-19-43-77-74-129-154-258-211-357-211-367 0-17 177-123 412-247 177-92 176-92 189-58 22 56 69 251 88 367 18 103 41 343 41 426v25l-182 12c-101 7-193 12-205 12h-22l23-57zM7825 3230c3-5 8-10 11-10s2 5-1 10c-3 6-8 10-11 10s-2-4 1-10zM7581 3204c0-11 3-14 6-6 3 7 2 16-1 19-3 4-6-2-5-13zM7852 3190c8-14 30-51 48-82 17-32 34-58 37-58 7 0-58 115-80 142l-19 23 14-25zM7570 3170c0-7 3-10 7-7 3 4 3 10 0 14-4 3-7 0-7-7zM7547 3114c-10-19-38-58-64-87l-47-52 43 40c41 39 98 121 89 130-2 3-12-11-21-31zM7975 2963c4-10 16-42 27-71 12-29 23-51 25-48 5 5-47 136-54 136-3 0-2-8 2-17zM8030 2820c0-7 3-10 7-7 3 4 3 10 0 14-4 3-7 0-7-7zM8040 2790c0-7 3-10 7-7 3 4 3 10 0 14-4 3-7 0-7-7zM8056 2740c4-19 14-41 23-48s10-11 4-7c-9 4-13-2-13-17 0-18 2-20 10-8 11 18 7 22 68-70 28-42 78-105 112-140l62-65-65 76c-78 93-114 144-167 241-33 59-40 66-34 38z"/><path d="M8082 2615c0-16 2-22 5-12 2 9 2 23 0 30-3 6-5-1-5-18zM8094 2455c0-60 1-84 3-52s2 81 0 110-3 3-3-58zM8347 2369c12-13 37-33 55-43 39-22 29-12-32 34-33 25-39 27-23 9zM8067 2252c-9-41-26-94-36-118-11-24-16-44-11-44 18 0 77 193 67 223-2 6-11-21-20-61zM8860 2265c-19-7-28-14-20-14s29 6 45 14c39 17 21 18-25 0zM8523 2263c4-3 10-3 14 0 3 4 0 7-7 7s-10-3-7-7zM8553 2253c4-3 10-3 14 0 3 4 0 7-7 7s-10-3-7-7zM8598 2243c7-3 16-2 19 1 4 3-2 6-13 5-11 0-14-3-6-6zM8788 2243c6-2 18-2 25 0 6 3 1 5-13 5s-19-2-12-5zM8673 2233c15-2 39-2 55 0 15 2 2 4-28 4s-43-2-27-4z"/></g><g fill="#e59d76"><path d="M8970 6661c27-108 21-105 127-55l91 44-11 30c-13 33-24 37-148 44l-77 5 18-68zM7940 4743c-25-21-46-41-48-45s-19-17-38-29c-32-20-34-22-17-34 22-16 132-75 138-75 8 0 36 73 46 122 6 26 15 50 20 54 14 9 11 21-8 27-10 2-25 8-33 11-10 4-32-7-60-31zM11044 4708c-4-7-3-8 4-4 12 7 16 16 8 16-3 0-8-5-12-12zM9828 3922c-9-9-25-35-37-57s-30-53-41-70c-11-16-26-43-35-60-8-16-24-43-34-60-11-16-35-59-53-94l-34-63 141-70c77-38 196-96 265-129s184-89 255-124c139-68 186-88 191-83 2 2 4 91 6 197l3 193-140 44c-77 25-180 59-230 76-49 17-124 39-165 49-41 11-84 24-95 29-11 4-33 13-50 18-29 10-29 10 15 11 25 0 64-4 88-9 23-6 57-12 76-14 27-4 274-51 416-79 326-65 573-117 576-120 2-2 8-77 13-167 8-137 13-166 28-181 26-26 358-297 360-295 1 1 10 58 19 126 25 180 25 497 1 610-25 116-52 172-102 219-30 28-57 42-96 50-71 16-278 39-409 47-97 6-107 5-114-11-6-16-18-17-154-11-81 4-165 9-187 11s-96 7-165 10c-206 10-282 15-290 20-4 2-14-3-22-13zM10818 2177c-6-102-65-191-161-242l-36-19 45-44c25-24 54-63 65-87 17-38 18-52 9-112-13-88-13-126 0-118 17 10 49-5 55-26 8-23-10-49-33-49-13 0-13 2 1 18 19 20 6 42-23 42-23 0-44-68-28-88 12-14 53-9 75 10 19 15 27 76 14 104-15 34 7 84 56 126 21 18 52 46 68 63 17 17 60 52 97 78l66 48 34 104 34 104-162 76c-89 41-164 75-167 75s-6-28-9-63zM10525 1700c-10-11-23-20-29-20s-23-6-37-14c-32-16-109-12-150 10l-29 15 6-40c6-37 5-39-23-45l-29-7 32-160c46-221 33-200 105-178 34 11 71 19 84 19 58 0 119 86 141 200 17 89 13 202-8 227-15 19-42 16-63-7zm-60-124c18-26 11-52-16-67-43-22-86 36-53 72 23 26 50 24 69-5zm-121-156c9 0 26 5 37 10 10 6 19 7 19 2 0-17-25-32-55-32-33 0-55 15-55 39 0 12 3 11 18-2 10-10 26-17 36-17z"/></g><g fill="#dca479"><path d="M1883 8943c4-3 10-3 14 0 3 4 0 7-7 7s-10-3-7-7zM1923 8943c4-3 10-3 14 0 3 4 0 7-7 7s-10-3-7-7zM2020 8906c0-2 8-10 18-17 15-13 16-12 3 4s-21 21-21 13zM2413 8533c4-3 10-3 14 0 3 4 0 7-7 7s-10-3-7-7zM2298 7973l-116-66-7-121c-4-67-5-152-3-191 3-70 3-69 33 100 33 191 24 174 160 292 33 29 58 52 55 52-3 1-57-29-122-66zM8983 6723c4-3 10-3 14 0 3 4 0 7-7 7s-10-3-7-7zM8990 6570c0-7 3-10 7-7 3 4 3 10 0 14-4 3-7 0-7-7zM1983 6423c4-3 10-3 14 0 3 4 0 7-7 7s-10-3-7-7zM2053 6413c4-3 10-3 14 0 3 4 0 7-7 7s-10-3-7-7zM1892 6390c0-14 2-19 5-12 2 6 2 18 0 25-3 6-5 1-5-13zM2183 6393c4-3 10-3 14 0 3 4 0 7-7 7s-10-3-7-7zM2323 6243c4-3 10-3 14 0 3 4 0 7-7 7s-10-3-7-7zM3694 6078c-4-7-3-8 4-4 12 7 16 16 8 16-3 0-8-5-12-12zM2421 6064c0-11 3-14 6-6 3 7 2 16-1 19-3 4-6-2-5-13zM3639 6013c-13-16-12-17 4-4s21 21 13 21c-2 0-10-8-17-17zM2393 6003c9-2 23-2 30 0 6 3-1 5-18 5-16 0-22-2-12-5zM2323 5993c4-3 10-3 14 0 3 4 0 7-7 7s-10-3-7-7zM2430 5970c0-7 3-10 7-7 3 4 3 10 0 14-4 3-7 0-7-7zM2470 5870c0-7 3-10 7-7 3 4 3 10 0 14-4 3-7 0-7-7zM8030 4720c0-7 3-10 7-7 3 4 3 10 0 14-4 3-7 0-7-7zM7874 4688c-4-7-3-8 4-4s12 9 12 12c0 8-9 4-16-8zM8020 4690c0-7 3-10 7-7 3 4 3 10 0 14-4 3-7 0-7-7zM10959 4623c-13-16-12-17 4-4s21 21 13 21c-2 0-10-8-17-17zM10924 4578c-4-7-3-8 4-4 12 7 16 16 8 16-3 0-8-5-12-12zM10834 4448c-4-7-3-8 4-4 12 7 16 16 8 16-3 0-8-5-12-12zM10714 4328c-4-7-3-8 4-4s12 9 12 12c0 8-9 4-16-8zM10674 4298c-4-7-3-8 4-4 12 7 16 16 8 16-3 0-8-5-12-12zM10443 4183c4-3 10-3 14 0 3 4 0 7-7 7s-10-3-7-7zM10413 4173c4-3 10-3 14 0 3 4 0 7-7 7s-10-3-7-7zM10383 4163c4-3 10-3 14 0 3 4 0 7-7 7s-10-3-7-7zM9824 3928c-4-7-3-8 4-4 12 7 16 16 8 16-3 0-8-5-12-12zM9948 3923c12-2 30-2 40 0 9 3-1 5-23 4-22 0-30-2-17-4zM10123 3913c9-2 23-2 30 0 6 3-1 5-18 5-16 0-22-2-12-5zM9764 3828c-4-7-3-8 4-4s12 9 12 12c0 8-9 4-16-8zM9833 3693c4-3 10-3 14 0 3 4 0 7-7 7s-10-3-7-7zM9873 3683c4-3 10-3 14 0 3 4 0 7-7 7s-10-3-7-7zM10313 3633c4-3 10-3 14 0 3 4 0 7-7 7s-10-3-7-7zM10368 3623c7-3 16-2 19 1 4 3-2 6-13 5-11 0-14-3-6-6zM10133 3603c4-3 10-3 14 0 3 4 0 7-7 7s-10-3-7-7zM10163 3593c4-3 10-3 14 0 3 4 0 7-7 7s-10-3-7-7zM9610 3500c8-5 20-10 25-10 6 0 3 5-5 10s-19 10-25 10c-5 0-3-5 5-10zM9873 3373c4-3 10-3 14 0 3 4 0 7-7 7s-10-3-7-7zM10450 3270c0-7 3-10 7-7 3 4 3 10 0 14-4 3-7 0-7-7zM10123 3253c4-3 10-3 14 0 3 4 0 7-7 7s-10-3-7-7zM10704 1968c-4-7-3-8 4-4s12 9 12 12c0 8-9 4-16-8zM10944 1778c-4-7-3-8 4-4s12 9 12 12c0 8-9 4-16-8zM10504 1688c-4-7-3-8 4-4s12 9 12 12c0 8-9 4-16-8zM10423 1653c4-3 10-3 14 0 3 4 0 7-7 7s-10-3-7-7zM10790 1590c0-7 3-10 7-7 3 4 3 10 0 14-4 3-7 0-7-7zM10230 1580c0-7 3-10 7-7 3 4 3 10 0 14-4 3-7 0-7-7zM10240 1530c0-7 3-10 7-7 3 4 3 10 0 14-4 3-7 0-7-7zM10796 1497c3-10 9-15 12-12s0 11-7 18c-10 9-11 8-5-6zM10251 1484c0-11 3-14 6-6 3 7 2 16-1 19-3 4-6-2-5-13zM10590 1470c0-7 3-10 7-7 3 4 3 10 0 14-4 3-7 0-7-7zM10705 1450c3-5 8-10 11-10s2 5-1 10c-3 6-8 10-11 10s-2-4 1-10zM10753 1443c4-3 10-3 14 0 3 4 0 7-7 7s-10-3-7-7zM10270 1390c0-7 3-10 7-7 3 4 3 10 0 14-4 3-7 0-7-7zM10544 1348c-4-7-3-8 4-4 12 7 16 16 8 16-3 0-8-5-12-12z"/></g><g fill="#a4a1e0"><path d="M1860 11330c0-7 3-10 7-7 3 4 3 10 0 14-4 3-7 0-7-7zM1850 11270c0-7 3-10 7-7 3 4 3 10 0 14-4 3-7 0-7-7zM4354 11168c-4-7-3-8 4-4 12 7 16 16 8 16-3 0-8-5-12-12zM3863 11053c4-3 10-3 14 0 3 4 0 7-7 7s-10-3-7-7zM1811 11024c0-11 3-14 6-6 3 7 2 16-1 19-3 4-6-2-5-13zM3700 11010c0-7 3-10 7-7 3 4 3 10 0 14-4 3-7 0-7-7zM1800 10970c0-7 3-10 7-7 3 4 3 10 0 14-4 3-7 0-7-7zM1790 10910c0-7 3-10 7-7 3 4 3 10 0 14-4 3-7 0-7-7zM3654 10788c-4-7-3-8 4-4 12 7 16 16 8 16-3 0-8-5-12-12zM1875 10700c3-5 8-10 11-10s2 5-1 10c-3 6-8 10-11 10s-2-4 1-10zM1910 10676c0-2 8-10 18-17 15-13 16-12 3 4s-21 21-21 13zM3610 10640c0-7 3-10 7-7 3 4 3 10 0 14-4 3-7 0-7-7zM2020 10586c0-2 8-10 18-17 15-13 16-12 3 4s-21 21-21 13zM3590 10570c0-7 3-10 7-7 3 4 3 10 0 14-4 3-7 0-7-7zM2085 10530c3-5 8-10 11-10s2 5-1 10c-3 6-8 10-11 10s-2-4 1-10zM2145 10480c3-5 8-10 11-10s2 5-1 10c-3 6-8 10-11 10s-2-4 1-10zM3890 10470c0-7 3-10 7-7 3 4 3 10 0 14-4 3-7 0-7-7zM1740 10446c0-2 8-10 18-17 15-13 16-12 3 4s-21 21-21 13zM2205 10430c3-5 8-10 11-10s2 5-1 10c-3 6-8 10-11 10s-2-4 1-10zM2260 10386c0-2 8-10 18-17 15-13 16-12 3 4s-21 21-21 13zM1800 10376c0-2 8-10 18-17 15-13 16-12 3 4s-21 21-21 13zM3870 10360c0-7 3-10 7-7 3 4 3 10 0 14-4 3-7 0-7-7zM2335 10320c3-5 8-10 11-10s2 5-1 10c-3 6-8 10-11 10s-2-4 1-10zM3860 10300c0-7 3-10 7-7 3 4 3 10 0 14-4 3-7 0-7-7zM1870 10296c0-2 8-10 18-17 15-13 16-12 3 4s-21 21-21 13zM2405 10260c10-11 20-20 23-20s-3 9-13 20-20 20-23 20 3-9 13-20zM3500 10250c0-7 3-10 7-7 3 4 3 10 0 14-4 3-7 0-7-7zM3851 10234c0-11 3-14 6-6 3 7 2 16-1 19-3 4-6-2-5-13zM1930 10226c0-2 8-10 18-17 15-13 16-12 3 4s-21 21-21 13zM2470 10206c0-2 8-10 18-17 15-13 16-12 3 4s-21 21-21 13zM3480 10180c0-7 3-10 7-7 3 4 3 10 0 14-4 3-7 0-7-7zM3841 10164c0-11 3-14 6-6 3 7 2 16-1 19-3 4-6-2-5-13zM2005 10140c3-5 8-10 11-10s2 5-1 10c-3 6-8 10-11 10s-2-4 1-10zM2550 10136c0-2 8-10 18-17 15-13 16-12 3 4s-21 21-21 13zM3831 10094c0-11 3-14 6-6 3 7 2 16-1 19-3 4-6-2-5-13zM2050 10086c0-2 8-10 18-17 15-13 16-12 3 4s-21 21-21 13zM2645 10050c10-11 20-20 23-20s-3 9-13 20-20 20-23 20 3-9 13-20zM3821 10014c0-11 3-14 6-6 3 7 2 16-1 19-3 4-6-2-5-13zM2120 10006c0-2 8-10 18-17 15-13 16-12 3 4s-21 21-21 13zM2750 9957c0-2 15-16 33-33l32-29-29 33c-28 30-36 37-36 29zM3811 9934c0-11 3-14 6-6 3 7 2 16-1 19-3 4-6-2-5-13zM2180 9936c0-2 8-10 18-17 15-13 16-12 3 4s-21 21-21 13zM3390 9860c0-7 3-10 7-7 3 4 3 10 0 14-4 3-7 0-7-7zM2255 9850c3-5 8-10 11-10s2 5-1 10c-3 6-8 10-11 10s-2-4 1-10zM3801 9834c0-11 3-14 6-6 3 7 2 16-1 19-3 4-6-2-5-13zM3370 9790c0-7 3-10 7-7 3 4 3 10 0 14-4 3-7 0-7-7zM2315 9780c3-5 8-10 11-10s2 5-1 10c-3 6-8 10-11 10s-2-4 1-10zM2975 9730c10-11 20-20 23-20s-3 9-13 20-20 20-23 20 3-9 13-20zM3350 9720c0-7 3-10 7-7 3 4 3 10 0 14-4 3-7 0-7-7zM2370 9716c0-2 8-10 18-17 15-13 16-12 3 4s-21 21-21 13zM2430 9646c0-2 8-10 18-17 15-13 16-12 3 4s-21 21-21 13zM4945 9620c3-5 8-10 11-10s2 5-1 10c-3 6-8 10-11 10s-2-4 1-10zM4925 9610c3-5 8-10 11-10s2 5-1 10c-3 6-8 10-11 10s-2-4 1-10zM3790 9600c0-7 3-10 7-7 3 4 3 10 0 14-4 3-7 0-7-7zM4871 9587c-8-10-7-14 2-14 8 0 14 6 14 14 0 7-1 13-2 13-2 0-8-6-14-13zM2505 9560c3-5 8-10 11-10s2 5-1 10c-3 6-8 10-11 10s-2-4 1-10zM3233 9563c4-3 10-3 14 0 3 4 0 7-7 7s-10-3-7-7zM2489 9483c-13-16-12-17 4-4 9 7 17 15 17 17 0 8-8 3-21-13zM2409 9413c-13-16-12-17 4-4 9 7 17 15 17 17 0 8-8 3-21-13zM3714 9418c-4-7-3-8 4-4 12 7 16 16 8 16-3 0-8-5-12-12zM3694 9388c-4-7-3-8 4-4s12 9 12 12c0 8-9 4-16-8zM4543 9393c4-3 10-3 14 0 3 4 0 7-7 7s-10-3-7-7zM4374 9348l-19-23 23 19c12 11 22 21 22 23 0 8-8 2-26-19zM3659 9343c-13-16-12-17 4-4s21 21 13 21c-2 0-10-8-17-17zM3565 9238l-50-53 53 50c48 46 57 55 49 55-1 0-25-24-52-52zM4332 9260c0-14 2-19 5-12 2 6 2 18 0 25-3 6-5 1-5-13zM4613 9233c4-3 10-3 14 0 3 4 0 7-7 7s-10-3-7-7zM4758 9233c7-3 16-2 19 1 4 3-2 6-13 5-11 0-14-3-6-6zM6773 9213c4-3 10-3 14 0 3 4 0 7-7 7s-10-3-7-7zM10673 9213c4-3 10-3 14 0 3 4 0 7-7 7s-10-3-7-7zM2159 9163c-13-16-12-17 4-4 9 7 17 15 17 17 0 8-8 3-21-13zM4433 9163c4-3 10-3 14 0 3 4 0 7-7 7s-10-3-7-7zM3434 9118l-19-23 23 19c21 18 27 26 19 26-2 0-12-10-23-22zM2114 9108c-4-7-3-8 4-4 12 7 16 16 8 16-3 0-8-5-12-12zM6484 9098c-4-7-3-8 4-4s12 9 12 12c0 8-9 4-16-8zM10975 9090c3-5 8-10 11-10s2 5-1 10c-3 6-8 10-11 10s-2-4 1-10zM3369 9063c-13-16-12-17 4-4s21 21 13 21c-2 0-10-8-17-17zM3319 9023c-13-16-12-17 4-4s21 21 13 21c-2 0-10-8-17-17zM3274 8988c-4-7-3-8 4-4 12 7 16 16 8 16-3 0-8-5-12-12zM11085 8980c3-5 8-10 11-10s2 5-1 10c-3 6-8 10-11 10s-2-4 1-10zM4953 8973c4-3 10-3 14 0 3 4 0 7-7 7s-10-3-7-7zM5133 8973c4-3 10-3 14 0 3 4 0 7-7 7s-10-3-7-7zM3234 8958c-4-7-3-8 4-4 12 7 16 16 8 16-3 0-8-5-12-12zM5164 8948c-4-7-3-8 4-4 12 7 16 16 8 16-3 0-8-5-12-12zM3154 8898c-4-7-3-8 4-4 12 7 16 16 8 16-3 0-8-5-12-12zM3124 8878c-4-7-3-8 4-4 12 7 16 16 8 16-3 0-8-5-12-12zM4858 8803c7-3 16-2 19 1 4 3-2 6-13 5-11 0-14-3-6-6zM2934 8748c-4-7-3-8 4-4 12 7 16 16 8 16-3 0-8-5-12-12zM6250 8750c0-7 3-10 7-7 3 4 3 10 0 14-4 3-7 0-7-7zM6240 8700c0-7 3-10 7-7 3 4 3 10 0 14-4 3-7 0-7-7zM6232 8600c0-19 2-27 5-17 2 9 2 25 0 35-3 9-5 1-5-18zM2524 8568c-4-7-3-8 4-4 12 7 16 16 8 16-3 0-8-5-12-12zM2473 8533c4-3 10-3 14 0 3 4 0 7-7 7s-10-3-7-7zM6199 8523c-13-16-12-17 4-4 9 7 17 15 17 17 0 8-8 3-21-13zM5519 8123c-13-16-12-17 4-4 9 7 17 15 17 17 0 8-8 3-21-13zM7148 7973c7-3 16-2 19 1 4 3-2 6-13 5-11 0-14-3-6-6zM7203 7973c4-3 10-3 14 0 3 4 0 7-7 7s-10-3-7-7zM6994 7918c-4-7-3-8 4-4s12 9 12 12c0 8-9 4-16-8zM6860 7720c0-7 3-10 7-7 3 4 3 10 0 14-4 3-7 0-7-7zM6860 7580c0-7 3-10 7-7 3 4 3 10 0 14-4 3-7 0-7-7zM6232 7515c0-16 2-22 5-12 2 9 2 23 0 30-3 6-5-1-5-18zM7725 7430c10-11 20-20 23-20s-3 9-13 20-20 20-23 20 3-9 13-20zM11210 7420c0-7 3-10 7-7 3 4 3 10 0 14-4 3-7 0-7-7zM6240 7410c0-7 3-10 7-7 3 4 3 10 0 14-4 3-7 0-7-7zM11200 7370c0-7 3-10 7-7 3 4 3 10 0 14-4 3-7 0-7-7zM6260 7330c0-7 3-10 7-7 3 4 3 10 0 14-4 3-7 0-7-7zM7133 7323c4-3 10-3 14 0 3 4 0 7-7 7s-10-3-7-7zM7218 7323c7-3 16-2 19 1 4 3-2 6-13 5-11 0-14-3-6-6zM6375 7120c3-5 8-10 11-10s2 5-1 10c-3 6-8 10-11 10s-2-4 1-10zM11069 7113c-13-16-12-17 4-4 9 7 17 15 17 17 0 8-8 3-21-13zM6455 7040c3-5 8-10 11-10s2 5-1 10c-3 6-8 10-11 10s-2-4 1-10zM10994 7038c-4-7-3-8 4-4s12 9 12 12c0 8-9 4-16-8zM13790 6960c0-5 7-7 15-4 8 4 15 8 15 10s-7 4-15 4-15-4-15-10zM12703 6945c0-8 4-12 9-9s6 10 3 15c-9 13-12 11-12-6zM13070 6949c0-5 5-7 10-4 6 3 10 8 10 11 0 2-4 4-10 4-5 0-10-5-10-11zM13833 6953c4-3 10-3 14 0 3 4 0 7-7 7s-10-3-7-7zM12669 6923c-13-16-12-17 4-4 9 7 17 15 17 17 0 8-8 3-21-13zM6818 6893c7-3 16-2 19 1 4 3-2 6-13 5-11 0-14-3-6-6zM10628 6893c7-3 16-2 19 1 4 3-2 6-13 5-11 0-14-3-6-6zM12619 6843c-13-16-12-17 4-4 9 7 17 15 17 17 0 8-8 3-21-13zM14035 6851c-3-5-2-12 3-15s9 1 9 9c0 17-3 19-12 6zM12579 6823c-13-16-12-17 4-4 9 7 17 15 17 17 0 8-8 3-21-13zM13163 6823c4-3 10-3 14 0 3 4 0 7-7 7s-10-3-7-7zM14085 6820c3-5 8-10 11-10s2 5-1 10c-3 6-8 10-11 10s-2-4 1-10zM13133 6813c4-3 10-3 14 0 3 4 0 7-7 7s-10-3-7-7zM13203 6813c4-3 10-3 14 0 3 4 0 7-7 7s-10-3-7-7zM12535 6750c-4-6-10-8-14-5-5 2-19-8-32-23-18-20-19-22-3-9 11 9 23 15 26 12s13 4 23 15 15 20 12 20-9-5-12-10zM13513 6733c4-3 10-3 14 0 3 4 0 7-7 7s-10-3-7-7zM13553 6723c4-3 10-3 14 0 3 4 0 7-7 7s-10-3-7-7zM13593 6713c4-3 10-3 14 0 3 4 0 7-7 7s-10-3-7-7zM13633 6703c4-3 10-3 14 0 3 4 0 7-7 7s-10-3-7-7zM14160 6680c0-7 3-10 7-7 3 4 3 10 0 14-4 3-7 0-7-7zM12370 6670c0-7 3-10 7-7 3 4 3 10 0 14-4 3-7 0-7-7zM12435 6640c-4-6-10-8-14-5-5 2-17-5-27-18-19-22-19-22 2-4 11 9 23 15 26 12s11 1 18 10c7 8 10 15 7 15s-9-5-12-10zM12360 6630c0-7 3-10 7-7 3 4 3 10 0 14-4 3-7 0-7-7zM13943 6623c4-3 10-3 14 0 3 4 0 7-7 7s-10-3-7-7zM13983 6613c4-3 10-3 14 0 3 4 0 7-7 7s-10-3-7-7zM12342 6590c0-14 2-19 5-12 2 6 2 18 0 25-3 6-5 1-5-13zM14023 6603c4-3 10-3 14 0 3 4 0 7-7 7s-10-3-7-7zM14063 6593c4-3 10-3 14 0 3 4 0 7-7 7s-10-3-7-7zM14103 6583c4-3 10-3 14 0 3 4 0 7-7 7s-10-3-7-7zM14160 6570c0-7 3-10 7-7 3 4 3 10 0 14-4 3-7 0-7-7zM12360 6550c0-7 3-10 7-7 3 4 3 10 0 14-4 3-7 0-7-7zM13294 6482c4-3 14-7 22-8 9-1 13 0 10 4-4 3-14 7-22 8-9 1-13 0-10-4zM12386 6458c4-5 9-7 12-4s15-2 26-11c21-18 21-18 3 3-16 20-52 30-41 12zM13324 6442c4-3 14-7 22-8 9-1 13 0 10 4-4 3-14 7-22 8-9 1-13 0-10-4zM8970 6420c0-7 3-10 7-7 3 4 3 10 0 14-4 3-7 0-7-7zM13360 6396c0-2 8-10 18-17 15-13 16-12 3 4s-21 21-21 13zM13420 6355c13-14 26-25 28-25 3 0-5 11-18 25s-26 25-28 25c-3 0 5-11 18-25zM9350 6300c0-7 3-10 7-7 3 4 3 10 0 14-4 3-7 0-7-7zM13459 6287c6-6 18-12 27-13 12-2 14 0 5 9-6 6-18 12-27 13-12 2-14 0-5-9zM9000 6260c0-7 3-10 7-7 3 4 3 10 0 14-4 3-7 0-7-7zM13495 6240c3-5 8-10 11-10s2 5-1 10c-3 6-8 10-11 10s-2-4 1-10zM9370 6230c0-7 3-10 7-7 3 4 3 10 0 14-4 3-7 0-7-7zM12920 6160c0-7 3-10 7-7 3 4 3 10 0 14-4 3-7 0-7-7zM14040 6150c0-7 3-10 7-7 3 4 3 10 0 14-4 3-7 0-7-7zM14020 6120c0-7 3-10 7-7 3 4 3 10 0 14-4 3-7 0-7-7zM14020 6080c0-7 3-10 7-7 3 4 3 10 0 14-4 3-7 0-7-7zM13495 6009c-3-4 2-6 10-5 21 3 28 13 10 13-9 0-18-4-20-8zM1364 5988c-4-7-3-8 4-4 12 7 16 16 8 16-3 0-8-5-12-12zM14075 5990c3-5 8-10 11-10s2 5-1 10c-3 6-8 10-11 10s-2-4 1-10zM13464 5938c-4-7-3-8 4-4s12 9 12 12c0 8-9 4-16-8zM13364 5828c-4-7-3-8 4-4s12 9 12 12c0 8-9 4-16-8zM1361 5784c0-11 3-14 6-6 3 7 2 16-1 19-3 4-6-2-5-13zM13315 5759c-3-4 2-6 10-5 21 3 28 13 10 13-9 0-18-4-20-8zM14454 5756c1-8 5-18 8-22 4-3 5 1 4 10-1 8-5 18-8 22-4 3-5-1-4-10zM14515 5680c3-5 8-10 11-10s2 5-1 10c-3 6-8 10-11 10s-2-4 1-10zM13235 5649c-3-4 2-6 10-5 21 3 28 13 10 13-9 0-18-4-20-8zM14544 5648c-4-7-3-8 4-4 12 7 16 16 8 16-3 0-8-5-12-12zM14554 5628c-4-7-3-8 4-4s12 9 12 12c0 8-9 4-16-8zM13204 5578c-4-7-3-8 4-4s12 9 12 12c0 8-9 4-16-8zM12670 5570c0-7 3-10 7-7 3 4 3 10 0 14-4 3-7 0-7-7zM14570 5560c0-7 3-10 7-7 3 4 3 10 0 14-4 3-7 0-7-7zM14590 5530c0-7 3-10 7-7 3 4 3 10 0 14-4 3-7 0-7-7zM13830 5500c0-7 3-10 7-7 3 4 3 10 0 14-4 3-7 0-7-7zM1500 5486c0-2 8-10 18-17 15-13 16-12 3 4s-21 21-21 13zM13124 5468c-4-7-3-8 4-4 12 7 16 16 8 16-3 0-8-5-12-12zM13820 5470c0-7 3-10 7-7 3 4 3 10 0 14-4 3-7 0-7-7zM13840 5450c0-7 3-10 7-7 3 4 3 10 0 14-4 3-7 0-7-7zM2382 5430c0-14 2-19 5-12 2 6 2 18 0 25-3 6-5 1-5-13zM12670 5440c0-7 3-10 7-7 3 4 3 10 0 14-4 3-7 0-7-7zM13830 5420c0-7 3-10 7-7 3 4 3 10 0 14-4 3-7 0-7-7zM13863 5423c4-3 10-3 14 0 3 4 0 7-7 7s-10-3-7-7zM13933 5413c4-3 10-3 14 0 3 4 0 7-7 7s-10-3-7-7zM14590 5410c0-7 3-10 7-7 3 4 3 10 0 14-4 3-7 0-7-7zM1685 5400c3-5 8-10 11-10s2 5-1 10c-3 6-8 10-11 10s-2-4 1-10zM13054 5398c-4-7-3-8 4-4 12 7 16 16 8 16-3 0-8-5-12-12zM13850 5400c0-7 3-10 7-7 3 4 3 10 0 14-4 3-7 0-7-7zM13888 5403c7-3 16-2 19 1 4 3-2 6-13 5-11 0-14-3-6-6zM14008 5403c7-3 16-2 19 1 4 3-2 6-13 5-11 0-14-3-6-6zM13958 5393c6-2 18-2 25 0 6 3 1 5-13 5s-19-2-12-5zM14078 5393c7-3 16-2 19 1 4 3-2 6-13 5-11 0-14-3-6-6zM14033 5383c4-3 10-3 14 0 3 4 0 7-7 7s-10-3-7-7zM14148 5383c7-3 16-2 19 1 4 3-2 6-13 5-11 0-14-3-6-6zM13841 5364c0-11 3-14 6-6 3 7 2 16-1 19-3 4-6-2-5-13zM14103 5373c4-3 10-3 14 0 3 4 0 7-7 7s-10-3-7-7zM14223 5373c4-3 10-3 14 0 3 4 0 7-7 7s-10-3-7-7zM14570 5370c0-7 3-10 7-7 3 4 3 10 0 14-4 3-7 0-7-7zM14293 5363c4-3 10-3 14 0 3 4 0 7-7 7s-10-3-7-7zM14363 5353c4-3 10-3 14 0 3 4 0 7-7 7s-10-3-7-7zM13860 5340c0-7 3-10 7-7 3 4 3 10 0 14-4 3-7 0-7-7zM14433 5343c4-3 10-3 14 0 3 4 0 7-7 7s-10-3-7-7zM13850 5310c0-7 3-10 7-7 3 4 3 10 0 14-4 3-7 0-7-7zM14533 5313c4-3 10-3 14 0 3 4 0 7-7 7s-10-3-7-7zM2233 5303c4-3 10-3 14 0 3 4 0 7-7 7s-10-3-7-7zM12994 5288c-4-7-3-8 4-4s12 9 12 12c0 8-9 4-16-8zM1953 5283c15-2 37-2 50 0 12 2 0 4-28 4-27 0-38-2-22-4zM2153 5283c4-3 10-3 14 0 3 4 0 7-7 7s-10-3-7-7zM14545 5260c3-5 8-10 11-10s2 5-1 10c-3 6-8 10-11 10s-2-4 1-10zM12755 5250c3-5 8-10 11-10s2 5-1 10c-3 6-8 10-11 10s-2-4 1-10zM13860 5250c0-7 3-10 7-7 3 4 3 10 0 14-4 3-7 0-7-7zM12805 5200c3-5 8-10 11-10s2 5-1 10c-3 6-8 10-11 10s-2-4 1-10zM12923 5153c4-3 10-3 14 0 3 4 0 7-7 7s-10-3-7-7zM12963 5143c4-3 10-3 14 0 3 4 0 7-7 7s-10-3-7-7zM13083 5133c26-2 67-2 90 0s2 3-48 3c-49 0-68-1-42-3zM13368 5133c7-3 16-2 19 1 4 3-2 6-13 5-11 0-14-3-6-6zM13900 5120c0-7 3-10 7-7 3 4 3 10 0 14-4 3-7 0-7-7zM13910 5070c0-7 3-10 7-7 3 4 3 10 0 14-4 3-7 0-7-7zM13555 5060c3-5 8-10 11-10s2 5-1 10c-3 6-8 10-11 10s-2-4 1-10zM13946 4895c-9-26-7-32 5-12 6 10 9 21 6 23-2 3-7-2-11-11zM14363 4875c0-22 2-30 4-17 2 12 2 30 0 40-3 9-5-1-4-23zM14380 4810c0-7 3-10 7-7 3 4 3 10 0 14-4 3-7 0-7-7zM14061 4584c0-11 3-14 6-6 3 7 2 16-1 19-3 4-6-2-5-13zM14430 4590c0-7 3-10 7-7 3 4 3 10 0 14-4 3-7 0-7-7zM14085 4580c3-5 8-10 11-10s2 5-1 10c-3 6-8 10-11 10s-2-4 1-10zM7463 4573c4-3 10-3 14 0 3 4 0 7-7 7s-10-3-7-7zM7413 4563c4-3 10-3 14 0 3 4 0 7-7 7s-10-3-7-7zM7363 4553c4-3 10-3 14 0 3 4 0 7-7 7s-10-3-7-7zM14080 4550c0-7 3-10 7-7 3 4 3 10 0 14-4 3-7 0-7-7zM14114 4542c4-3 14-7 22-8 9-1 13 0 10 4-4 3-14 7-22 8-9 1-13 0-10-4zM14071 4514c0-11 3-14 6-6 3 7 2 16-1 19-3 4-6-2-5-13zM14154 4492c4-3 14-7 22-8 9-1 13 0 10 4-4 3-14 7-22 8-9 1-13 0-10-4zM14090 4480c0-7 3-10 7-7 3 4 3 10 0 14-4 3-7 0-7-7zM14081 4444c0-11 3-14 6-6 3 7 2 16-1 19-3 4-6-2-5-13zM13914 4412c4-3 14-7 22-8 9-1 13 0 10 4-4 3-14 7-22 8-9 1-13 0-10-4zM14100 4410c0-7 3-10 7-7 3 4 3 10 0 14-4 3-7 0-7-7zM8105 4400c3-5 8-10 11-10s2 5-1 10c-3 6-8 10-11 10s-2-4 1-10zM14090 4380c0-7 3-10 7-7 3 4 3 10 0 14-4 3-7 0-7-7zM13956 4358c4-5 9-7 12-3 3 3 26-14 51-37l46-43-43 46c-24 25-49 46-57 46s-12-4-9-9zM14304 4356c1-8 5-18 8-22 4-3 5 1 4 10-1 8-5 18-8 22-4 3-5-1-4-10zM14510 4340c0-7 3-10 7-7 3 4 3 10 0 14-4 3-7 0-7-7zM14463 4263c4-3 10-3 14 0 3 4 0 7-7 7s-10-3-7-7zM14474 4228c-4-7-3-8 4-4s12 9 12 12c0 8-9 4-16-8zM14203 4193c4-3 10-3 14 0 3 4 0 7-7 7s-10-3-7-7zM14243 4183c4-3 10-3 14 0 3 4 0 7-7 7s-10-3-7-7zM14363 4183c4-3 10-3 14 0 3 4 0 7-7 7s-10-3-7-7zM14273 4163c4-3 10-3 14 0 3 4 0 7-7 7s-10-3-7-7zM14333 4163c4-3 10-3 14 0 3 4 0 7-7 7s-10-3-7-7zM8983 4063c4-3 10-3 14 0 3 4 0 7-7 7s-10-3-7-7zM9108 4063c6-2 18-2 25 0 6 3 1 5-13 5s-19-2-12-5zM9248 4053c7-3 16-2 19 1 4 3-2 6-13 5-11 0-14-3-6-6zM9398 4043c7-3 16-2 19 1 4 3-2 6-13 5-11 0-14-3-6-6zM9538 4033c7-3 16-2 19 1 4 3-2 6-13 5-11 0-14-3-6-6zM9678 4023c7-3 16-2 19 1 4 3-2 6-13 5-11 0-14-3-6-6zM9823 4013c4-3 10-3 14 0 3 4 0 7-7 7s-10-3-7-7zM9958 4003c7-3 16-2 19 1 4 3-2 6-13 5-11 0-14-3-6-6zM8884 3988c-4-7-3-8 4-4 12 7 16 16 8 16-3 0-8-5-12-12zM10098 3993c7-3 16-2 19 1 4 3-2 6-13 5-11 0-14-3-6-6zM9888 3693c7-3 16-2 19 1 4 3-2 6-13 5-11 0-14-3-6-6zM7460 3015c-7-8-9-15-4-15s0-7-10-15c-11-8-15-15-9-15s16 7 23 15 9 15 5 15-2 7 5 15 10 15 7 15c-2 0-10-7-17-15zM8903 2283c4-3 10-3 14 0 3 4 0 7-7 7s-10-3-7-7zM8870 2276c0-2 7-7 16-10 8-3 12-2 9 4-6 10-25 14-25 6zM8850 2260c8-5 20-10 25-10 6 0 3 5-5 10s-19 10-25 10c-5 0-3-5 5-10zM7900 1940c0-7 3-10 7-7 3 4 3 10 0 14-4 3-7 0-7-7zM8014 1928l-19-23 23 19c12 11 22 21 22 23 0 8-8 2-26-19zM10250 1790c0-7 3-10 7-7 3 4 3 10 0 14-4 3-7 0-7-7zM11270 1330c0-7 3-10 7-7 3 4 3 10 0 14-4 3-7 0-7-7zM10254 1198l-19-23 23 19c21 18 27 26 19 26-2 0-12-10-23-22zM11204 1078l-19-23 23 19c21 18 27 26 19 26-2 0-12-10-23-22zM10203 1050c0-25 2-35 4-22 2 12 2 32 0 45-2 12-4 2-4-23zM10669 813c-13-16-12-17 4-4s21 21 13 21c-2 0-10-8-17-17zM10725 740c3-5 8-10 11-10s2 5-1 10c-3 6-8 10-11 10s-2-4 1-10z"/></g><g fill="#fa9ba5"><path d="M4870 10051c0-5 5-13 10-16 6-3 10-2 10 4 0 5-4 13-10 16-5 3-10 2-10-4zM4876 9994c-4-9-4-19-1-22 2-3 7 3 11 12s4 19 1 22c-2 3-7-3-11-12zM4883 9933c4-3 10-3 14 0 3 4 0 7-7 7s-10-3-7-7zM4893 9903c4-3 10-3 14 0 3 4 0 7-7 7s-10-3-7-7zM4920 9863c5-2 8-8 5-13s9-18 27-30l33-22-25 22c-14 12-25 27-25 33s-6 11-13 13c-7 1-8 0-2-3zM5030 9752c6-12 15-20 20-17 4 3 11 0 13-5 4-7 5-6 4 1-2 6-6 9-9 7-4-2-14 6-23 17-16 19-16 19-5-3zM5080 9720c0-7 3-10 7-7 3 4 3 10 0 14-4 3-7 0-7-7zM5100 9710c0-7 3-10 7-7 3 4 3 10 0 14-4 3-7 0-7-7zM5120 9700c0-7 3-10 7-7 3 4 3 10 0 14-4 3-7 0-7-7zM5140 9689c0-5 5-7 10-4 6 3 10 8 10 11 0 2-4 4-10 4-5 0-10-5-10-11zM5100 9660c8-5 22-10 30-10 13 0 13 1 0 10-8 5-22 10-30 10-13 0-13-1 0-10zM5035 9650c3-5 11-10 16-10 6 0 7 5 4 10-3 6-11 10-16 10-6 0-7-4-4-10zM5208 9653c7-3 16-2 19 1 4 3-2 6-13 5-11 0-14-3-6-6zM5294 9648c-4-7-3-8 4-4 12 7 16 16 8 16-3 0-8-5-12-12zM5000 9640c0-5 5-10 11-10 5 0 7 5 4 10-3 6-8 10-11 10-2 0-4-4-4-10zM5340 9639c0-5 5-7 10-4 6 3 10 8 10 11 0 2-4 4-10 4-5 0-10-5-10-11zM4970 9630c0-7 3-10 7-7 3 4 3 10 0 14-4 3-7 0-7-7zM5375 9630c-3-5-1-10 4-10 6 0 11 5 11 10 0 6-2 10-4 10-3 0-8-4-11-10zM5410 9619c0-5 5-7 10-4 6 3 10 8 10 11 0 2-4 4-10 4-5 0-10-5-10-11zM5440 9609c0-5 5-7 10-4 6 3 10 8 10 11 0 2-4 4-10 4-5 0-10-5-10-11zM5465 9600c-3-5-1-10 4-10 6 0 11 5 11 10 0 6-2 10-4 10-3 0-8-4-11-10zM5490 9589c0-5 5-7 10-4 6 3 10 8 10 11 0 2-4 4-10 4-5 0-10-5-10-11zM5514 9578c-4-7-3-8 4-4 12 7 16 16 8 16-3 0-8-5-12-12zM5540 9570c0-7 3-10 7-7 3 4 3 10 0 14-4 3-7 0-7-7zM5671 9503c-1-17 16-25 25-12 4 7 3 9-4 5-5-3-13 0-15 6-4 9-6 10-6 1zM6040 9470c0-7 3-10 7-7 3 4 3 10 0 14-4 3-7 0-7-7zM5748 9456c5-11 17-21 26-22s13 2 10 8c-3 5-8 7-12 4-3-3-11 2-19 12-13 16-14 16-5-2zM6325 9460c3-5 8-10 11-10s2 5-1 10c-3 6-8 10-11 10s-2-4 1-10zM6040 9420c0-7 3-10 7-7 3 4 3 10 0 14-4 3-7 0-7-7zM6214 9418c-4-7-3-8 4-4 12 7 16 16 8 16-3 0-8-5-12-12zM6234 9408c-4-7-3-8 4-4s12 9 12 12c0 8-9 4-16-8zM5825 9390c3-5 8-10 11-10s2 5-1 10c-3 6-8 10-11 10s-2-4 1-10zM6267 9392c-4-5 9-23 27-41 19-18 36-29 39-23 4 5-9 23-27 41-19 18-36 29-39 23zm39-34l29-33-32 29c-31 28-38 36-30 36 2 0 16-15 33-32zM5865 9360c3-5 8-10 11-10s2 5-1 10c-3 6-8 10-11 10s-2-4 1-10zM5895 9350c3-5 8-10 11-10s2 5-1 10c-3 6-8 10-11 10s-2-4 1-10zM6123 9353c4-3 10-3 14 0 3 4 0 7-7 7s-10-3-7-7zM6173 9343c4-3 10-3 14 0 3 4 0 7-7 7s-10-3-7-7zM5915 9320c3-5 8-10 11-10s2 5-1 10c-3 6-8 10-11 10s-2-4 1-10zM5945 9310c3-5 8-10 11-10s2 5-1 10c-3 6-8 10-11 10s-2-4 1-10zM6346 9288c3-5 10-6 15-3 13 9 11 12-6 12-8 0-12-4-9-9zM5979 9267c8-9 16-15 19-12s17-5 31-17l26-23-24 27c-14 16-27 26-29 23-3-3-12 1-21 8-14 11-14 10-2-6zM6339 9248c30-32 51-41 51-21 0 4-3 3-7-1-4-3-23 8-42 26l-36 33 34-37zM6364 9268c-4-7-3-8 4-4 12 7 16 16 8 16-3 0-8-5-12-12zM4836 9227c3-10 9-15 12-12s0 11-7 18c-10 9-11 8-5-6zM6404 9228c-4-7-3-8 4-4 12 7 16 16 8 16-3 0-8-5-12-12zM4865 9210c3-5 8-10 11-10s2 5-1 10c-3 6-8 10-11 10s-2-4 1-10zM6080 9175c13-14 26-25 28-25 3 0-5 11-18 25s-26 25-28 25c-3 0 5-11 18-25zM6400 9188c-12-8-12-9 2-5 9 3 19 1 22-6 3-9 5-9 5 0 1 18-13 23-29 11zM4905 9180c3-5 8-10 11-10s2 5-1 10c-3 6-8 10-11 10s-2-4 1-10zM4944 9150c1-7 6-12 11-12 6-1 16-8 23-17 11-14 11-13 2 7-6 12-15 20-20 17-4-3-11 0-13 5-4 7-5 6-3 0zM6533 9133c4-3 10-3 14 0 3 4 0 7-7 7s-10-3-7-7zM6495 9120c3-5 8-10 11-10 2 0 4 5 4 10 0 6-5 10-11 10-5 0-7-4-4-10zM5004 9109c-4-7-3-9 4-5 5 3 13 0 15-6 4-9 6-10 6-1 1 17-16 25-25 12zM6470 9110c0-7 3-10 7-7 3 4 3 10 0 14-4 3-7 0-7-7zM6440 9100c0-7 3-10 7-7 3 4 3 10 0 14-4 3-7 0-7-7zM6415 9090c3-5 8-10 11-10 2 0 4 5 4 10 0 6-5 10-11 10-5 0-7-4-4-10zM6370 9070c0-7 3-10 7-7 3 4 3 10 0 14-4 3-7 0-7-7zM6345 9060c3-5 8-10 11-10s2 5-1 10c-3 6-8 10-11 10s-2-4 1-10zM6220 9033c13-18 25-33 27-33 8 0-17 38-33 51-11 9-9 2 6-18zM6305 9040c3-5 8-10 11-10s2 5-1 10c-3 6-8 10-11 10s-2-4 1-10zM5160 9030c0-7 3-10 7-7 3 4 3 10 0 14-4 3-7 0-7-7zM6280 9030c0-7 3-10 7-7 3 4 3 10 0 14-4 3-7 0-7-7zM5180 9020c0-7 3-10 7-7 3 4 3 10 0 14-4 3-7 0-7-7zM6255 9020c3-5 8-10 11-10 2 0 4 5 4 10 0 6-5 10-11 10-5 0-7-4-4-10zM5204 9009c-3-6-2-15 3-20s9-1 10 11c2 22-2 25-13 9zM5230 8999c0-5 5-7 10-4 6 3 10 8 10 11 0 2-4 4-10 4-5 0-10-5-10-11zM6210 9000c0-7 3-10 7-7 3 4 3 10 0 14-4 3-7 0-7-7zM5255 8990c-3-5-1-10 4-10 6 0 11 5 11 10 0 6-2 10-4 10-3 0-8-4-11-10zM6180 8990c0-5 5-10 11-10 5 0 7 5 4 10-3 6-8 10-11 10-2 0-4-4-4-10zM5285 8980c-3-5-1-10 4-10 6 0 11 5 11 10 0 6-2 10-4 10-3 0-8-4-11-10zM6155 8980c3-5 8-10 11-10 2 0 4 5 4 10 0 6-5 10-11 10-5 0-7-4-4-10zM5320 8970c0-7 3-10 7-7 3 4 3 10 0 14-4 3-7 0-7-7zM6125 8970c3-5 8-10 11-10 2 0 4 5 4 10 0 6-5 10-11 10-5 0-7-4-4-10zM5350 8959c0-5 5-7 10-4 6 3 10 8 10 11 0 2-4 4-10 4-5 0-10-5-10-11zM6090 8960c0-7 3-10 7-7 3 4 3 10 0 14-4 3-7 0-7-7zM5390 8950c0-7 3-10 7-7 3 4 3 10 0 14-4 3-7 0-7-7zM6055 8950c3-5 8-10 11-10s2 5-1 10c-3 6-8 10-11 10s-2-4 1-10zM5425 8940c-3-5-2-10 4-10 5 0 13 5 16 10 3 6 2 10-4 10-5 0-13-4-16-10zM6015 8940c3-5 8-10 11-10s2 5-1 10c-3 6-8 10-11 10s-2-4 1-10zM5475 8930c-3-5-2-10 4-10 5 0 13 5 16 10 3 6 2 10-4 10-5 0-13-4-16-10zM5965 8930c3-5 8-10 11-10s2 5-1 10c-3 6-8 10-11 10s-2-4 1-10zM5535 8920c-3-5 1-10 9-10 9 0 16 5 16 10 0 6-4 10-9 10-6 0-13-4-16-10zM5895 8920c3-5 13-10 21-10s12 5 9 10c-3 6-13 10-21 10s-12-4-9-10zM5620 8910c-11-7-4-10 28-10 23 0 42 5 42 10 0 13-50 13-70 0zM5770 8910c0-5 16-10 36-10 21 0 33 4 29 10-3 6-19 10-36 10-16 0-29-4-29-10zM5140 8066c0-2 15-6 34-8s32 0 30 4c-5 8-64 12-64 4zM5063 8053c4-3 10-3 14 0 3 4 0 7-7 7s-10-3-7-7zM5020 8040c0-7 3-10 7-7 3 4 3 10 0 14-4 3-7 0-7-7zM5123 8043c9-2 23-2 30 0 6 3-1 5-18 5-16 0-22-2-12-5zM5058 8033c7-3 16-2 19 1 4 3-2 6-13 5-11 0-14-3-6-6zM4814 7938c-4-7-3-8 4-4 12 7 16 16 8 16-3 0-8-5-12-12zM4754 7918c-4-7-3-8 4-4 12 7 16 16 8 16-3 0-8-5-12-12zM4784 7918c-4-7-3-8 4-4 12 7 16 16 8 16-3 0-8-5-12-12zM4744 7888c-4-7-3-8 4-4 12 7 16 16 8 16-3 0-8-5-12-12zM4604 7768c-4-7-3-8 4-4 12 7 16 16 8 16-3 0-8-5-12-12zM4564 7708c-4-7-3-8 4-4 12 7 16 16 8 16-3 0-8-5-12-12zM4574 7688c-4-7-3-8 4-4 12 7 16 16 8 16-3 0-8-5-12-12zM4471 7444c0-11 3-14 6-6 3 7 2 16-1 19-3 4-6-2-5-13zM11875 7430c3-5 8-10 11-10s2 5-1 10c-3 6-8 10-11 10s-2-4 1-10zM11504 7418c-4-7-3-8 4-4s12 9 12 12c0 8-9 4-16-8zM11930 7385c13-14 26-25 28-25 3 0-5 11-18 25s-26 25-28 25c-3 0 5-11 18-25zM4483 7345c0-27 2-38 4-22 2 15 2 37 0 50-2 12-4 0-4-28zM11434 7348c-4-7-3-8 4-4s12 9 12 12c0 8-9 4-16-8zM11712 7283c97-4 97-4 101-31 4-25 4-24 6 6l1 32-102-2-103-2 97-3zM12000 7280c0-7 3-10 7-7 3 4 3 10 0 14-4 3-7 0-7-7zM12010 7250c0-7 3-10 7-7 3 4 3 10 0 14-4 3-7 0-7-7zM11380 7230c0-7 3-10 7-7 3 4 3 10 0 14-4 3-7 0-7-7zM11725 7210c10-11 20-20 23-20s-3 9-13 20-20 20-23 20 3-9 13-20zM12021 7204c0-11 3-14 6-6 3 7 2 16-1 19-3 4-6-2-5-13zM11690 7166c0-2 8-10 18-17 15-13 16-12 3 4s-21 21-21 13zM11812 7095c0-16 2-22 5-12 2 9 2 23 0 30-3 6-5-1-5-18zM12021 7104c0-11 3-14 6-6 3 7 2 16-1 19-3 4-6-2-5-13zM11648 7103c6-2 18-2 25 0 6 3 1 5-13 5s-19-2-12-5zM11685 7080c3-5 8-10 11-10s2 5-1 10c-3 6-8 10-11 10s-2-4 1-10zM11734 7078c-4-7-3-8 4-4 12 7 16 16 8 16-3 0-8-5-12-12zM12010 7060c0-7 3-10 7-7 3 4 3 10 0 14-4 3-7 0-7-7zM11635 7040c3-5 8-10 11-10s2 5-1 10c-3 6-8 10-11 10s-2-4 1-10zM4523 6973c4-3 10-3 14 0 3 4 0 7-7 7s-10-3-7-7zM11440 6956c0-2 8-10 18-17 15-13 16-12 3 4s-21 21-21 13zM11480 6916c0-2 8-10 18-17 15-13 16-12 3 4s-21 21-21 13zM4604 6838c-4-7-4-10 1-6 4 4 15 2 24-5 14-11 14-10 2 6-16 20-18 21-27 5zM11793 6843c4-3 10-3 14 0 3 4 0 7-7 7s-10-3-7-7zM11638 6833c7-3 16-2 19 1 4 3-2 6-13 5-11 0-14-3-6-6zM11748 6833c7-3 16-2 19 1 4 3-2 6-13 5-11 0-14-3-6-6zM4615 6810c3-5 8-10 11-10s2 5-1 10c-3 6-8 10-11 10s-2-4 1-10zM4690 6755c19-19 36-35 39-35s-10 16-29 35-36 35-39 35 10-16 29-35zM4850 6620c0-7 3-10 7-7 3 4 3 10 0 14-4 3-7 0-7-7zM4933 6593c4-3 10-3 14 0 3 4 0 7-7 7s-10-3-7-7zM4963 6583c4-3 10-3 14 0 3 4 0 7-7 7s-10-3-7-7zM4993 6573c4-3 10-3 14 0 3 4 0 7-7 7s-10-3-7-7zM5020 6560c0-7 3-10 7-7 3 4 3 10 0 14-4 3-7 0-7-7zM5170 6540c0-7 3-10 7-7 3 4 3 10 0 14-4 3-7 0-7-7zM5350 6540c0-7 3-10 7-7 3 4 3 10 0 14-4 3-7 0-7-7zM5500 6540c0-7 3-10 7-7 3 4 3 10 0 14-4 3-7 0-7-7zM6680 6540c0-7 3-10 7-7 3 4 3 10 0 14-4 3-7 0-7-7zM6830 6540c0-7 3-10 7-7 3 4 3 10 0 14-4 3-7 0-7-7zM8010 6540c0-7 3-10 7-7 3 4 3 10 0 14-4 3-7 0-7-7zM8160 6540c0-7 3-10 7-7 3 4 3 10 0 14-4 3-7 0-7-7zM9490 6540c0-7 3-10 7-7 3 4 3 10 0 14-4 3-7 0-7-7zM10820 6540c0-7 3-10 7-7 3 4 3 10 0 14-4 3-7 0-7-7zM11873 6513c4-3 10-3 14 0 3 4 0 7-7 7s-10-3-7-7zM11913 6503c4-3 10-3 14 0 3 4 0 7-7 7s-10-3-7-7zM11980 6490c-13-8-12-10 3-10 9 0 17 5 17 10 0 12-1 12-20 0zM12150 6406c0-2 8-10 18-17 15-13 16-12 3 4s-21 21-21 13zM12185 6350c3-5 8-10 11-10s2 5-1 10c-3 6-8 10-11 10s-2-4 1-10zM1880 6320c0-7 3-10 7-7 3 4 3 10 0 14-4 3-7 0-7-7zM12230 6326c0-2 8-10 18-17 15-13 16-12 3 4s-21 21-21 13zM12243 6283c4-3 10-3 14 0 3 4 0 7-7 7s-10-3-7-7zM2283 6253c4-3 10-3 14 0 3 4 0 7-7 7s-10-3-7-7zM6373 6203c4-3 10-3 14 0 3 4 0 7-7 7s-10-3-7-7zM10288 6203c7-3 16-2 19 1 4 3-2 6-13 5-11 0-14-3-6-6zM6124 6108c-4-7-3-8 4-4s12 9 12 12c0 8-9 4-16-8zM10545 6110c3-5 8-10 11-10s2 5-1 10c-3 6-8 10-11 10s-2-4 1-10zM12360 6100c0-7 3-10 7-7 3 4 3 10 0 14-4 3-7 0-7-7zM6094 6088c-4-7-3-8 4-4s12 9 12 12c0 8-9 4-16-8zM10575 6090c3-5 8-10 11-10s2 5-1 10c-3 6-8 10-11 10s-2-4 1-10zM12370 6060c0-7 3-10 7-7 3 4 3 10 0 14-4 3-7 0-7-7zM6024 6028l-29-33 33 29c30 28 37 36 29 36-2 0-16-15-33-32zM12381 6014c0-11 3-14 6-6 3 7 2 16-1 19-3 4-6-2-5-13zM12373 5983c4-3 10-3 14 0 3 4 0 7-7 7s-10-3-7-7zM10690 5976c0-2 8-10 18-17 15-13 16-12 3 4s-21 21-21 13zM5964 5958c-4-7-3-8 4-4s12 9 12 12c0 8-9 4-16-8zM10725 5930c3-5 8-10 11-10s2 5-1 10c-3 6-8 10-11 10s-2-4 1-10zM5890 5830c0-7 3-10 7-7 3 4 3 10 0 14-4 3-7 0-7-7zM12390 5742l5-97 3 89c1 49-1 93-5 97-4 5-6-36-3-89zM10800 5770c0-7 3-10 7-7 3 4 3 10 0 14-4 3-7 0-7-7zM5860 5740c0-7 3-10 7-7 3 4 3 10 0 14-4 3-7 0-7-7zM10811 5734c0-11 3-14 6-6 3 7 2 16-1 19-3 4-6-2-5-13zM5850 5690c0-7 3-10 7-7 3 4 3 10 0 14-4 3-7 0-7-7zM10821 5684c0-11 3-14 6-6 3 7 2 16-1 19-3 4-6-2-5-13zM10830 5570c0-7 3-10 7-7 3 4 3 10 0 14-4 3-7 0-7-7zM10850 5526c0-2 8-10 18-17 15-13 16-12 3 4s-21 21-21 13zM11055 5400c3-5 8-10 11-10s2 5-1 10c-3 6-8 10-11 10s-2-4 1-10zM11245 5290c3-5 8-10 11-10s2 5-1 10c-3 6-8 10-11 10s-2-4 1-10zM11315 5250c3-5 8-10 11-10s2 5-1 10c-3 6-8 10-11 10s-2-4 1-10zM12154 5208c-4-7-3-8 4-4s12 9 12 12c0 8-9 4-16-8zM12114 5178c-4-7-3-8 4-4s12 9 12 12c0 8-9 4-16-8zM12134 5168c-4-7-3-8 4-4s12 9 12 12c0 8-9 4-16-8zM12084 5158c-4-7-3-8 4-4s12 9 12 12c0 8-9 4-16-8zM11505 5140c3-5 8-10 11-10s2 5-1 10c-3 6-8 10-11 10s-2-4 1-10zM11530 5126c0-2 8-10 18-17 15-13 16-12 3 4s-21 21-21 13zM11560 5080c0-7 3-10 7-7 3 4 3 10 0 14-4 3-7 0-7-7zM11884 5082c3-6-2-13-11-15-16-4-16-5-1-6 21-1 32 15 17 25-7 4-9 3-5-4zM11788 5073c7-3 16-2 19 1 4 3-2 6-13 5-11 0-14-3-6-6zM11534 4978l-19-23 23 19c21 18 27 26 19 26-2 0-12-10-23-22zM6593 4963c4-3 10-3 14 0 3 4 0 7-7 7s-10-3-7-7zM6693 4963c4-3 10-3 14 0 3 4 0 7-7 7s-10-3-7-7zM6743 4953c4-3 10-3 14 0 3 4 0 7-7 7s-10-3-7-7zM11454 4928c-4-7-3-8 4-4 12 7 16 16 8 16-3 0-8-5-12-12zM6444 4898c-4-7-3-8 4-4s12 9 12 12c0 8-9 4-16-8zM6875 4880c3-5 8-10 11-10s2 5-1 10c-3 6-8 10-11 10s-2-4 1-10zM6394 4848c-4-7-3-8 4-4s12 9 12 12c0 8-9 4-16-8zM11264 4818c-4-7-3-8 4-4 12 7 16 16 8 16-3 0-8-5-12-12zM6330 4720c0-7 3-10 7-7 3 4 3 10 0 14-4 3-7 0-7-7zM6971 4704c0-11 3-14 6-6 3 7 2 16-1 19-3 4-6-2-5-13zM6322 4640c0-14 2-19 5-12 2 6 2 18 0 25-3 6-5 1-5-13zM6970 4580c0-7 3-10 7-7 3 4 3 10 0 14-4 3-7 0-7-7zM5520 4535c13-14 26-25 28-25 3 0-5 11-18 25s-26 25-28 25c-3 0 5-11 18-25zM6960 4540c0-7 3-10 7-7 3 4 3 10 0 14-4 3-7 0-7-7zM6375 4460c3-5 8-10 11-10s2 5-1 10c-3 6-8 10-11 10s-2-4 1-10zM5595 4450c3-5 8-10 11-10s2 5-1 10c-3 6-8 10-11 10s-2-4 1-10zM6415 4410c10-11 20-20 23-20s-3 9-13 20-20 20-23 20 3-9 13-20zM5850 4410c0-7 3-10 7-7 3 4 3 10 0 14-4 3-7 0-7-7zM7205 4410c3-5 8-10 11-10s2 5-1 10c-3 6-8 10-11 10s-2-4 1-10zM5635 4400c3-5 8-10 11-10s2 5-1 10c-3 6-8 10-11 10s-2-4 1-10zM7243 4393c4-3 10-3 14 0 3 4 0 7-7 7s-10-3-7-7zM6844 4378c-4-7-3-8 4-4s12 9 12 12c0 8-9 4-16-8zM5665 4360c3-5 8-10 11-10s2 5-1 10c-3 6-8 10-11 10s-2-4 1-10zM5860 4360c0-7 3-10 7-7 3 4 3 10 0 14-4 3-7 0-7-7zM6563 4323c4-3 10-3 14 0 3 4 0 7-7 7s-10-3-7-7zM6733 4323c4-3 10-3 14 0 3 4 0 7-7 7s-10-3-7-7zM6623 4313c15-2 39-2 55 0 15 2 2 4-28 4s-43-2-27-4zM3128 4303c6-2 18-2 25 0 6 3 1 5-13 5s-19-2-12-5zM3218 4303c6-2 18-2 25 0 6 3 1 5-13 5s-19-2-12-5zM3273 4293c4-3 10-3 14 0 3 4 0 7-7 7s-10-3-7-7zM5491 4254c0-11 3-14 6-6 3 7 2 16-1 19-3 4-6-2-5-13zM5735 4260c3-5 8-10 11-10s2 5-1 10c-3 6-8 10-11 10s-2-4 1-10zM5720 4216c0-2 9-6 20-9s20-1 20 4-9 9-20 9-20-2-20-4zM5670 4200c8-5 24-9 35-9h20l-20 9c-11 5-27 9-35 9-13 1-13 0 0-9zM5605 4190c11-5 27-9 35-9 13-1 13 0 0 9-8 5-24 9-35 9h-20l20-9zM5535 4180c11-5 27-9 35-9 13-1 13 0 0 9-8 5-24 9-35 9h-20l20-9zM5488 4163c7-3 16-2 19 1 4 3-2 6-13 5-11 0-14-3-6-6zM2894 4138c-4-7-3-8 4-4 12 7 16 16 8 16-3 0-8-5-12-12zM2880 4110c0-7 3-10 7-7 3 4 3 10 0 14-4 3-7 0-7-7zM3278 4103c6-2 18-2 25 0 6 3 1 5-13 5s-19-2-12-5zM6025 4070c21-22 41-40 44-40s-13 18-34 40-41 40-44 40 13-18 34-40zM2870 4080c0-7 3-10 7-7 3 4 3 10 0 14-4 3-7 0-7-7zM3350 4086c0-2 8-10 18-17 15-13 16-12 3 4s-21 21-21 13zM3500 4050c0-7 3-10 7-7 3 4 3 10 0 14-4 3-7 0-7-7zM2860 4040c0-7 3-10 7-7 3 4 3 10 0 14-4 3-7 0-7-7zM3254 4038c-4-7-3-8 4-4s12 9 12 12c0 8-9 4-16-8zM3380 4040c0-7 3-10 7-7 3 4 3 10 0 14-4 3-7 0-7-7zM3380 4010c0-7 3-10 7-7 3 4 3 10 0 14-4 3-7 0-7-7zM5880 3990c0-7 3-10 7-7 3 4 3 10 0 14-4 3-7 0-7-7zM3252 3965c0-16 2-22 5-12 2 9 2 23 0 30-3 6-5-1-5-18zM3364 3978c-4-7-3-8 4-4 12 7 16 16 8 16-3 0-8-5-12-12zM5314 3958c-4-7-3-8 4-4 12 7 16 16 8 16-3 0-8-5-12-12zM5284 3938c-4-7-3-8 4-4s12 9 12 12c0 8-9 4-16-8zM3305 3930c3-5 8-10 11-10s2 5-1 10c-3 6-8 10-11 10s-2-4 1-10zM5314 3928c-4-7-3-8 4-4 12 7 16 16 8 16-3 0-8-5-12-12zM2860 3920c0-7 3-10 7-7 3 4 3 10 0 14-4 3-7 0-7-7zM3035 3920c3-5 8-10 11-10s2 5-1 10c-3 6-8 10-11 10s-2-4 1-10zM3500 3920c0-7 3-10 7-7 3 4 3 10 0 14-4 3-7 0-7-7zM3243 3913c4-3 10-3 14 0 3 4 0 7-7 7s-10-3-7-7zM5324 3908c-4-7-3-8 4-4s12 9 12 12c0 8-9 4-16-8zM10303 3903c4-3 10-3 14 0 3 4 0 7-7 7s-10-3-7-7zM10463 3893c4-3 10-3 14 0 3 4 0 7-7 7s-10-3-7-7zM3490 3880c0-7 3-10 7-7 3 4 3 10 0 14-4 3-7 0-7-7zM5133 3883c4-3 10-3 14 0 3 4 0 7-7 7s-10-3-7-7zM7203 3883c4-3 10-3 14 0 3 4 0 7-7 7s-10-3-7-7zM7235 3880c4-6 11-8 16-5 14 9 11 15-7 15-8 0-12-5-9-10zM3359 3863c-13-16-12-17 4-4s21 21 13 21c-2 0-10-8-17-17zM4321 3864c0-11 3-14 6-6 3 7 2 16-1 19-3 4-6-2-5-13zM3025 3860c3-5 8-10 11-10s2 5-1 10c-3 6-8 10-11 10s-2-4 1-10zM3215 3860c3-5 8-10 11-10s2 5-1 10c-3 6-8 10-11 10s-2-4 1-10zM5354 3858c-4-7-3-8 4-4 12 7 16 16 8 16-3 0-8-5-12-12zM4625 3850c3-5 8-10 11-10s2 5-1 10c-3 6-8 10-11 10s-2-4 1-10zM5026 3848c3-5 10-6 15-3 13 9 11 12-6 12-8 0-12-4-9-9zM7264 3842c11-12 21-20 24-17s15-3 26-12c15-13 14-10-3 10-14 15-27 25-29 22-3-3-12 1-21 7-10 8-9 4 3-10zM5364 3838c-4-7-3-8 4-4s12 9 12 12c0 8-9 4-16-8zM3278 3833c6-2 18-2 25 0 6 3 1 5-13 5s-19-2-12-5zM5015 3830c3-5 8-10 11-10s2 5-1 10c-3 6-8 10-11 10s-2-4 1-10zM4330 3820c0-7 3-10 7-7 3 4 3 10 0 14-4 3-7 0-7-7zM4605 3820c3-5 8-10 11-10s2 5-1 10c-3 6-8 10-11 10s-2-4 1-10zM5374 3818c-4-7-3-8 4-4s12 9 12 12c0 8-9 4-16-8zM4595 3800c3-5 8-10 11-10s2 5-1 10c-3 6-8 10-11 10s-2-4 1-10zM4995 3800c3-5 8-10 11-10s2 5-1 10c-3 6-8 10-11 10s-2-4 1-10zM3444 3788c-4-7-3-8 4-4 12 7 16 16 8 16-3 0-8-5-12-12zM2925 3780c3-5 8-10 11-10s2 5-1 10c-3 6-8 10-11 10s-2-4 1-10zM4340 3780c0-7 3-10 7-7 3 4 3 10 0 14-4 3-7 0-7-7zM4575 3770c3-5 8-10 11-10s2 5-1 10c-3 6-8 10-11 10s-2-4 1-10zM5891 3776c10-9 79-14 74-5-4 5-22 9-42 9s-34-2-32-4zM7360 3755c13-14 26-25 28-25 3 0-5 11-18 25s-26 25-28 25c-3 0 5-11 18-25zM5560 3766c0-2 14-6 30-8 17-3 30-1 30 4 0 4-13 8-30 8-16 0-30-2-30-4zM5670 3758c0-4 21-8 48-7 52 1 48 6-10 11-21 2-38 0-38-4zM4965 3750c3-5 8-10 11-10s2 5-1 10c-3 6-8 10-11 10s-2-4 1-10zM5397 3747c-3-8 1-14 8-14s11 6 8 14c-3 7-6 13-8 13s-5-6-8-13zM4556 3738c3-5 10-6 15-3 13 9 11 12-6 12-8 0-12-4-9-9zM2970 3736c0-2 8-10 18-17 15-13 16-12 3 4s-21 21-21 13zM5970 3730c0-7 3-10 7-7 3 4 3 10 0 14-4 3-7 0-7-7zM3374 3718c-4-7-3-8 4-4 12 7 16 16 8 16-3 0-8-5-12-12zM4536 3721c-4-5-2-12 3-15 5-4 12-2 15 3 4 5 2 12-3 15-5 4-12 2-15-3zM4946 3718c3-5 10-6 15-3 13 9 11 12-6 12-8 0-12-4-9-9zM7438 3699c18-19 30-38 27-42s-2-5 2-2c3 3 15-2 25-11 15-14 16-20 5-32-10-13-9-14 2-7 11 6 13 4 8-8-9-23 0-22 12 1 8 16-1 29-52 78-34 32-47 43-29 23zM5385 3710c3-5 8-10 11-10s2 5-1 10c-3 6-8 10-11 10s-2-4 1-10zM5434 3708c-4-7-3-8 4-4s12 9 12 12c0 8-9 4-16-8zM4935 3700c3-5 8-10 11-10s2 5-1 10c-3 6-8 10-11 10s-2-4 1-10zM9953 3703c4-3 10-3 14 0 3 4 0 7-7 7s-10-3-7-7zM4525 3690c3-5 8-10 11-10s2 5-1 10c-3 6-8 10-11 10s-2-4 1-10zM5375 3690c3-5 8-10 11-10s2 5-1 10c-3 6-8 10-11 10s-2-4 1-10zM5980 3690c0-7 3-10 7-7 3 4 3 10 0 14-4 3-7 0-7-7zM10003 3693c4-3 10-3 14 0 3 4 0 7-7 7s-10-3-7-7zM10053 3683c4-3 10-3 14 0 3 4 0 7-7 7s-10-3-7-7zM4916 3668c3-5 10-6 15-3 13 9 11 12-6 12-8 0-12-4-9-9zM10103 3673c4-3 10-3 14 0 3 4 0 7-7 7s-10-3-7-7zM4505 3660c3-5 8-10 11-10s2 5-1 10c-3 6-8 10-11 10s-2-4 1-10zM5355 3660c3-5 8-10 11-10s2 5-1 10c-3 6-8 10-11 10s-2-4 1-10zM3178 3653c7-3 16-2 19 1 4 3-2 6-13 5-11 0-14-3-6-6zM4905 3650c3-5 8-10 11-10s2 5-1 10c-3 6-8 10-11 10s-2-4 1-10zM5991 3644c0-11 3-14 6-6 3 7 2 16-1 19-3 4-6-2-5-13zM4485 3630c3-5 8-10 11-10s2 5-1 10c-3 6-8 10-11 10s-2-4 1-10zM5335 3630c3-5 8-10 11-10s2 5-1 10c-3 6-8 10-11 10s-2-4 1-10zM4885 3620c3-5 8-10 11-10s2 5-1 10c-3 6-8 10-11 10s-2-4 1-10zM5325 3610c3-5 8-10 11-10s2 5-1 10c-3 6-8 10-11 10s-2-4 1-10zM10413 3613c4-3 10-3 14 0 3 4 0 7-7 7s-10-3-7-7zM4466 3598c3-5 10-6 15-3 13 9 11 12-6 12-8 0-12-4-9-9zM4875 3600c3-5 8-10 11-10s2 5-1 10c-3 6-8 10-11 10s-2-4 1-10zM6001 3594c0-11 3-14 6-6 3 7 2 16-1 19-3 4-6-2-5-13zM4439 3573c-12-16-12-17 2-6 9 7 20 9 24 5 5-4 5-1 1 6-9 16-11 15-27-5zM5305 3580c3-5 8-10 11-10s2 5-1 10c-3 6-8 10-11 10s-2-4 1-10zM4855 3570c3-5 8-10 11-10s2 5-1 10c-3 6-8 10-11 10s-2-4 1-10zM7514 3568c-4-7-3-8 4-4s12 9 12 12c0 8-9 4-16-8zM7540 3575c0-1 15-14 32-31 27-23 29-24 10-3-12 14-20 28-17 31 3 2-2 5-10 5s-15-1-15-2zM5286 3562c-3-5 1-9 9-9s12 4 9 9c-3 4-7 8-9 8s-6-4-9-8zM5514 3538c-4-7-3-8 4-4s12 9 12 12c0 8-9 4-16-8zM6011 3534c0-11 3-14 6-6 3 7 2 16-1 19-3 4-6-2-5-13zM5275 3530c3-5 8-10 11-10s2 5-1 10c-3 6-8 10-11 10s-2-4 1-10zM4825 3520c3-5 8-10 11-10s2 5-1 10c-3 6-8 10-11 10s-2-4 1-10zM5524 3518c-4-7-3-8 4-4s12 9 12 12c0 8-9 4-16-8zM7533 3523c4-3 10-3 14 0 3 4 0 7-7 7s-10-3-7-7zM4465 3510c3-5 8-10 11-10s2 5-1 10c-3 6-8 10-11 10s-2-4 1-10zM5256 3512c-3-5 1-9 9-9s12 4 9 9c-3 4-7 8-9 8s-6-4-9-8zM7623 3504c9-11 15-23 12-26s3-11 12-19c16-12 17-12 6 2-7 9-11 18-8 21s-5 13-17 24c-23 19-23 19-5-2zM5535 3499c-4-6-5-12-2-15 2-3 7 2 10 11 7 17 1 20-8 4zM7544 3498c-4-7-3-8 4-4s12 9 12 12c0 8-9 4-16-8zM4806 3488c3-5 10-6 15-3 13 9 11 12-6 12-8 0-12-4-9-9zM5245 3480c3-5 8-10 11-10s2 5-1 10c-3 6-8 10-11 10s-2-4 1-10zM5546 3473c-6-14-5-15 5-6 7 7 10 15 7 18s-9-2-12-12zM4795 3470c3-5 8-10 11-10s2 5-1 10c-3 6-8 10-11 10s-2-4 1-10zM6022 3460c0-14 2-19 5-12 2 6 2 18 0 25-3 6-5 1-5-13zM7550 3469c0-5 5-7 10-4 6 3 10 8 10 11 0 2-4 4-10 4-5 0-10-5-10-11zM4505 3450c3-5 8-10 11-10s2 5-1 10c-3 6-8 10-11 10s-2-4 1-10zM5225 3450c3-5 8-10 11-10s2 5-1 10c-3 6-8 10-11 10s-2-4 1-10zM5554 3448c-4-7-3-8 4-4s12 9 12 12c0 8-9 4-16-8zM4775 3440c3-5 8-10 11-10s2 5-1 10c-3 6-8 10-11 10s-2-4 1-10zM7565 3440c-3-5-1-10 4-10 6 0 11 5 11 10 0 6-2 10-4 10-3 0-8-4-11-10zM7677 3439c7-9 10-18 7-22-3-3 6-13 20-22 14-10 24-21 21-25-3-5-2-11 3-14 21-13 6 27-15 41-12 8-21 19-18 23s-3 14-13 21c-15 12-16 12-5-2zM5215 3430c3-5 8-10 11-10s2 5-1 10c-3 6-8 10-11 10s-2-4 1-10zM4765 3420c3-5 8-10 11-10s2 5-1 10c-3 6-8 10-11 10s-2-4 1-10zM4535 3410c3-5 8-10 11-10s2 5-1 10c-3 6-8 10-11 10s-2-4 1-10zM5195 3400c3-5 8-10 11-10s2 5-1 10c-3 6-8 10-11 10s-2-4 1-10zM7570 3394c0-8 5-12 10-9 6 3 10 10 10 16 0 5-4 9-10 9-5 0-10-7-10-16zM4745 3390c3-5 8-10 11-10s2 5-1 10c-3 6-8 10-11 10s-2-4 1-10zM5176 3382c-3-5 1-9 9-9s12 4 9 9c-3 4-7 8-9 8s-6-4-9-8zM5584 3378c-4-7-3-8 4-4s12 9 12 12c0 8-9 4-16-8zM4560 3376c0-2 8-10 18-17 15-13 16-12 3 4s-21 21-21 13zM4735 3370c3-5 8-10 11-10s2 5-1 10c-3 6-8 10-11 10s-2-4 1-10zM6028 3325c-2-25 0-45 4-45 5 0 8 20 8 45s-2 45-4 45-6-20-8-45zM5165 3350c3-5 8-10 11-10s2 5-1 10c-3 6-8 10-11 10s-2-4 1-10zM7580 3334c0-14 4-23 10-19 6 3 10 15 10 26 0 10-4 19-10 19-5 0-10-12-10-26zM4715 3340c3-5 8-10 11-10s2 5-1 10c-3 6-8 10-11 10s-2-4 1-10zM7754 3336c1-8 5-18 8-22 4-3 5 1 4 10-1 8-5 18-8 22-4 3-5-1-4-10zM5604 3328c-4-7-3-8 4-4 12 7 16 16 8 16-3 0-8-5-12-12zM4696 3308c3-5 10-6 15-3 13 9 11 12-6 12-8 0-12-4-9-9zM5678 3313c6-2 18-2 25 0 6 3 1 5-13 5s-19-2-12-5zM4640 3285c13-14 26-25 28-25 3 0-5 11-18 25s-26 25-28 25c-3 0 5-11 18-25zM5135 3300c3-5 8-10 11-10s2 5-1 10c-3 6-8 10-11 10s-2-4 1-10zM5605 3300c3-5 8-10 11-10s2 5-1 10c-3 6-8 10-11 10s-2-4 1-10zM5633 3303c4-3 10-3 14 0 3 4 0 7-7 7s-10-3-7-7zM5828 3303c7-3 16-2 19 1 4 3-2 6-13 5-11 0-14-3-6-6zM4685 3290c3-5 8-10 11-10s2 5-1 10c-3 6-8 10-11 10s-2-4 1-10zM5768 3293c7-3 16-2 19 1 4 3-2 6-13 5-11 0-14-3-6-6zM5968 3293c7-3 16-2 19 1 4 3-2 6-13 5-11 0-14-3-6-6zM5624 3278c-4-7-3-8 4-4s12 9 12 12c0 8-9 4-16-8zM5908 3283c6-2 18-2 25 0 6 3 1 5-13 5s-19-2-12-5zM5115 3270c3-5 8-10 11-10s2 5-1 10c-3 6-8 10-11 10s-2-4 1-10zM7804 3263c2-9 8-19 14-21 7-2 10-8 6-13-3-5 2-12 10-15 9-3 13-11 9-17s-1-7 7-2c10 6 10 11-3 20-9 7-14 15-10 18 3 4-2 9-11 13-9 3-14 10-11 14 3 5 1 11-4 14-5 4-8-2-7-11zM5636 3253c-6-14-5-15 5-6 7 7 10 15 7 18s-9-2-12-12zM7580 3246c0-14 5-26 10-26 6 0 10 9 10 19 0 11-4 23-10 26-6 4-10-5-10-19zM5105 3250c3-5 8-10 11-10s2 5-1 10c-3 6-8 10-11 10s-2-4 1-10zM5575 3250c3-5 8-10 11-10s2 5-1 10c-3 6-8 10-11 10s-2-4 1-10zM4680 3246c0-2 8-10 18-17 15-13 16-12 3 4s-21 21-21 13zM5565 3230c3-5 8-10 11-10s2 5-1 10c-3 6-8 10-11 10s-2-4 1-10zM5645 3229c-4-6-5-12-2-15 2-3 7 2 10 11 7 17 1 20-8 4zM5085 3220c3-5 8-10 11-10s2 5-1 10c-3 6-8 10-11 10s-2-4 1-10zM5545 3200c3-5 8-10 11-10s2 5-1 10c-3 6-8 10-11 10s-2-4 1-10zM5654 3198c-4-7-3-8 4-4 12 7 16 16 8 16-3 0-8-5-12-12zM5066 3188c3-5 10-6 15-3 13 9 11 12-6 12-8 0-12-4-9-9zM7570 3191c0-5 5-13 10-16 6-3 10-2 10 4 0 5-4 13-10 16-5 3-10 2-10-4zM5535 3180c3-5 8-10 11-10s2 5-1 10c-3 6-8 10-11 10s-2-4 1-10zM5666 3173c-6-14-5-15 5-6 7 7 10 15 7 18s-9-2-12-12zM5055 3170c3-5 8-10 11-10s2 5-1 10c-3 6-8 10-11 10s-2-4 1-10zM6033 3125c0-27 2-38 4-22 2 15 2 37 0 50-2 12-4 0-4-28zM4785 3140c10-11 20-20 23-20s-3 9-13 20-20 20-23 20 3-9 13-20zM5516 3148c3-5 10-6 15-3 13 9 11 12-6 12-8 0-12-4-9-9zM5676 3143c-6-14-5-15 5-6 7 7 10 15 7 18s-9-2-12-12zM7565 3150c3-5 8-10 11-10 2 0 4 5 4 10 0 6-5 10-11 10-5 0-7-4-4-10zM7874 3148c-4-7-3-8 4-4s12 9 12 12c0 8-9 4-16-8zM5036 3138c3-5 10-6 15-3 13 9 11 12-6 12-8 0-12-4-9-9zM5505 3130c3-5 8-10 11-10s2 5-1 10c-3 6-8 10-11 10s-2-4 1-10zM7555 3130c3-5 8-10 11-10s2 5-1 10c-3 6-8 10-11 10s-2-4 1-10zM5025 3120c3-5 8-10 11-10s2 5-1 10c-3 6-8 10-11 10s-2-4 1-10zM5005 3090c3-5 8-10 11-10s2 5-1 10c-3 6-8 10-11 10s-2-4 1-10zM7533 3085c0-8 4-12 9-9s6 10 3 15c-9 13-12 11-12-6zM5475 3080c3-5 8-10 11-10s2 5-1 10c-3 6-8 10-11 10s-2-4 1-10zM4865 3070c3-5 8-10 11-10s2 5-1 10c-3 6-8 10-11 10s-2-4 1-10zM7505 3060c-3-5-3-10 1-10s-3-12-17-27l-24-28 26 23c14 12 26 29 26 37 0 18-3 19-12 5zM4975 3040c3-5 8-10 11-10s2 5-1 10c-3 6-8 10-11 10s-2-4 1-10zM7933 3043c4-3 10-3 14 0 3 4 0 7-7 7s-10-3-7-7zM5445 3030c3-5 8-10 11-10s2 5-1 10c-3 6-8 10-11 10s-2-4 1-10zM4925 3020c3-5 8-10 11-10s2 5-1 10c-3 6-8 10-11 10s-2-4 1-10zM5714 3018c-4-7-3-8 4-4 12 7 16 16 8 16-3 0-8-5-12-12zM7943 3023c4-3 10-3 14 0 3 4 0 7-7 7s-10-3-7-7zM4961 2999c5-10 15-21 22-25 8-6 8-3-1 9-8 9-11 20-8 25s-1 9-9 9c-10 0-11-5-4-18zM5435 3010c3-5 8-10 11-10s2 5-1 10c-3 6-8 10-11 10s-2-4 1-10zM6022 2990c0-14 2-19 5-12 2 6 2 18 0 25-3 6-5 1-5-13zM7953 3003c4-3 10-3 14 0 3 4 0 7-7 7s-10-3-7-7zM5226 2985c4-8 8-15 10-15s4 7 4 15-4 15-10 15c-5 0-7-7-4-15zM5724 2988c-4-7-3-8 4-4s12 9 12 12c0 8-9 4-16-8zM7434 2988c-4-7-3-8 4-4s12 9 12 12c0 8-9 4-16-8zM5416 2978c3-5 10-6 15-3 13 9 11 12-6 12-8 0-12-4-9-9zM7960 2979c0-5 5-7 10-4 6 3 10 8 10 11 0 2-4 4-10 4-5 0-10-5-10-11zM5405 2960c3-5 8-10 11-10s2 5-1 10c-3 6-8 10-11 10s-2-4 1-10zM7974 2958c-4-7-3-8 4-4s12 9 12 12c0 8-9 4-16-8zM5015 2950c3-5 8-10 11-10s2 5-1 10c-3 6-8 10-11 10s-2-4 1-10zM5386 2942c-3-5 1-9 9-9s12 4 9 9c-3 4-7 8-9 8s-6-4-9-8zM5057 2919c7-7 15-10 18-7s-2 9-12 12c-14 6-15 5-6-5zM5745 2919c-4-6-4-13-1-16 3-4 6-1 6 6s5 9 12 5 8-3 4 4c-9 15-13 15-21 1zM5375 2910c3-5 8-10 11-10s2 5-1 10c-3 6-8 10-11 10s-2-4 1-10zM6011 2904c0-11 3-14 6-6 3 7 2 16-1 19-3 4-6-2-5-13zM5805 2900c-17-7-16-9 10-9 17 0 39 4 50 9 17 7 16 9-10 9-16 0-39-4-50-9zM5365 2890c3-5 8-10 11-10s2 5-1 10c-3 6-8 10-11 10s-2-4 1-10zM5910 2890c-24-8-24-8 5-8 17 0 39 3 50 8 18 8 18 9-5 8-14 0-36-4-50-8zM8004 2888c-4-7-3-8 4-4 12 7 16 16 8 16-3 0-8-5-12-12zM5345 2860c3-5 8-10 11-10s2 5-1 10c-3 6-8 10-11 10s-2-4 1-10zM5766 2855c-9-26-7-32 5-12 6 10 9 21 6 23-2 3-7-2-11-11zM6002 2840c0-14 2-19 5-12 2 6 2 18 0 25-3 6-5 1-5-13zM5335 2840c3-5 8-10 11-10s2 5-1 10c-3 6-8 10-11 10s-2-4 1-10zM5715 2830c3-5 8-10 11-10s2 5-1 10c-3 6-8 10-11 10s-2-4 1-10zM8023 2833c4-3 10-3 14 0 3 4 0 7-7 7s-10-3-7-7zM5777 2823c-4-3-7-11-7-17s5-5 12 2c6 6 9 14 7 17-3 3-9 2-12-2zM5315 2810c3-5 8-10 11-10s2 5-1 10c-3 6-8 10-11 10s-2-4 1-10zM5705 2810c3-5 8-10 11-10s2 5-1 10c-3 6-8 10-11 10s-2-4 1-10zM8033 2803c4-3 10-3 14 0 3 4 0 7-7 7s-10-3-7-7zM5305 2790c3-5 8-10 11-10s2 5-1 10c-3 6-8 10-11 10s-2-4 1-10zM5786 2783c-6-14-5-15 5-6 7 7 10 15 7 18s-9-2-12-12zM5991 2784c0-11 3-14 6-6 3 7 2 16-1 19-3 4-6-2-5-13zM5286 2772c-2-4 4-14 15-20 19-12 19-11 9 8-12 22-16 24-24 12zM8040 2769c0-5 5-7 10-4 6 3 10 8 10 11 0 2-4 4-10 4-5 0-10-5-10-11zM5685 2760c3-5 8-10 11-10s2 5-1 10c-3 6-8 10-11 10s-2-4 1-10zM5794 2748c-4-7-3-8 4-4s12 9 12 12c0 8-9 4-16-8zM5675 2740c3-5 8-10 11-10s2 5-1 10c-3 6-8 10-11 10s-2-4 1-10zM5980 2730c0-7 3-10 7-7 3 4 3 10 0 14-4 3-7 0-7-7zM8050 2730c0-7 3-10 7-7 3 4 3 10 0 14-4 3-7 0-7-7zM5665 2720c3-5 8-10 11-10s2 5-1 10c-3 6-8 10-11 10s-2-4 1-10zM8060 2692c0-5 7-9 15-9s12 4 9 9c-3 4-9 8-15 8-5 0-9-4-9-8zM5435 2670c3-5 8-10 11-10s2 5-1 10c-3 6-8 10-11 10s-2-4 1-10zM5645 2670c3-5 8-10 11-10s2 5-1 10c-3 6-8 10-11 10s-2-4 1-10zM5635 2650c3-5 8-10 11-10s2 5-1 10c-3 6-8 10-11 10s-2-4 1-10zM5824 2648c-4-7-3-8 4-4s12 9 12 12c0 8-9 4-16-8zM8077 2653c-4-3-7-11-7-17s5-5 12 2c6 6 9 14 7 17-3 3-9 2-12-2zM5960 2640c0-7 3-10 7-7 3 4 3 10 0 14-4 3-7 0-7-7zM8114 2638c-4-7-3-8 4-4 12 7 16 16 8 16-3 0-8-5-12-12zM5505 2630c3-5 8-10 11-10s2 5-1 10c-3 6-8 10-11 10s-2-4 1-10zM5613 2603c4-3 1-13-6-22-11-14-10-14 5-2 16 12 16 31 1 31-4 0-3-3 0-7zM8080 2569c0-11 5-17 10-14 6 3 10 13 10 21s-4 14-10 14c-5 0-10-9-10-21zM8174 2556c1-8 5-18 8-22 4-3 5 1 4 10-1 8-5 18-8 22-4 3-5-1-4-10zM5861 2547c-1-10 6-34 14-54 9-20 14-42 11-48-2-7 2-12 9-12 10 0 9 12-5 51-27 81-28 84-29 63zM8204 2515c1-8 8-21 16-28 12-10 12-9 2 4-6 9-9 18-6 21s1 9-4 12c-6 3-9-1-8-9zM5910 2460c0-7 3-10 7-7 3 4 3 10 0 14-4 3-7 0-7-7zM8294 2420c53-61 63-71 39-35-12 17-34 41-49 55-19 17-15 10 10-20zM8080 2341c0-12 5-21 10-21 6 0 10 6 10 14s-4 18-10 21c-5 3-10-3-10-14zM8430 2310c0-7 3-10 7-7 3 4 3 10 0 14-4 3-7 0-7-7zM8450 2300c0-7 3-10 7-7 3 4 3 10 0 14-4 3-7 0-7-7zM8470 2290c0-7 3-10 7-7 3 4 3 10 0 14-4 3-7 0-7-7zM8490 2280c0-7 3-10 7-7 3 4 3 10 0 14-4 3-7 0-7-7zM8510 2269c0-5 5-7 10-4 6 3 10 8 10 11 0 2-4 4-10 4-5 0-10-5-10-11zM8540 2260c0-7 3-10 7-7 3 4 3 10 0 14-4 3-7 0-7-7zM8575 2250c3-5 8-10 11-10 2 0 4 5 4 10 0 6-5 10-11 10-5 0-7-4-4-10zM8815 2250c3-5 8-10 11-10 2 0 4 5 4 10 0 6-5 10-11 10-5 0-7-4-4-10zM8625 2240c3-5 10-10 16-10 5 0 9 5 9 10 0 6-7 10-16 10-8 0-12-4-9-10zM8745 2240c3-5 13-10 21-10s14 5 14 10c0 6-9 10-21 10-11 0-17-4-14-10zM10754 2018c-4-7-3-8 4-4 12 7 16 16 8 16-3 0-8-5-12-12zM10280 1650c0-7 3-10 7-7 3 4 3 10 0 14-4 3-7 0-7-7z"/></g><g fill="#93b6fd"><path d="M4886 10234c-42-55-53-101-36-157l12-42 13 30 13 30 2-30 1-30 24 30c38 45 49 99 35 162-6 29-15 53-20 53s-25-21-44-46zM4853 9619c-26-13-54-38-73-67l-31-47 51-3c64-4 116 20 147 67 13 19 23 38 23 42 0 10-48-9-71-28s-45-18-29 2c7 8 16 15 21 15s23 9 41 20l33 20h-35c-19 0-54-9-77-21zM6741 8686c-26-15-50-51-51-79 0-31 28-74 57-86 21-8 518-11 1956-9l1929 3 24 28c32 37 32 87 0 124l-24 28-1934 2c-1592 2-1937 0-1957-11zM6741 8316c-26-15-50-51-51-79 0-31 28-74 57-86 21-8 518-11 1956-9l1929 3 24 28c32 37 32 87 0 124l-24 28-1934 2c-1592 2-1937 0-1957-11zM7751 7946c-26-15-50-51-51-79 0-31 28-74 57-86 21-8 388-11 1429-9 1386 3 1402 3 1424 23 33 30 42 62 29 102-22 67 79 63-1466 63-1141-1-1402-3-1422-14zM7402 3020c-54-13-110-57-142-113-16-28-30-55-30-59 0-14 86-9 131 7 52 19 96 58 115 102 20 47 17 59-9 35-13-12-26-22-30-22-15 0-6 23 16 41 21 17 21 18 2 18-11-1-35-5-53-9zM9030 2431c-74-23-156-88-189-150-11-20-11-20 30-5 43 14 65 11 39-7-8-5-27-12-42-16-38-8-35-18 11-31 123-37 247 19 337 152 30 45 32 51 17 58-24 9-172 8-203-1z"/></g><g fill="#ffcc7d"><path d="M1829 8909c-63-63-97-217-133-609-49-522-60-1223-22-1420 39-207 105-329 208-385 47-26 62-29 131-27 48 1 90 7 108 17 16 8 42 22 57 30 16 8 52 19 81 25 29 5 71 18 94 28 40 17 44 17 127 0 252-53 446-139 628-275 90-68 211-188 270-268 24-33 45-61 47-63s62 67 134 153l132 156-58 66c-132 150-356 334-545 446-133 80-339 177-483 228-66 24-122 44-124 46-7 5 70 448 119 678 27 127 58 281 68 343 11 62 22 115 23 117 2 2 96 56 209 120 113 65 206 119 208 120 6 6-192 175-205 175-19 0-191-67-481-186-140-58-262-104-271-102-10 2-16 13-16 33 0 28 5 31 169 100l168 72-46 6c-25 4-63 15-84 26-48 25-136 117-195 208-44 67-113 135-164 161-11 7-42 13-68 16-44 3-50 1-86-35zm536-922c-136-118-127-101-160-292-30-169-30-170-33-100-2 39-1 124 3 191l7 121 116 66c65 37 119 67 122 66 3 0-22-23-55-52zM11151 4764c-83-24-152-91-273-264-47-68-167-188-211-212-42-22-170-85-207-101-20-9-85-28-145-42-132-31-195-53-195-70 0-6 16-28 36-49l35-36 217-15c192-14 219-18 234-35 12-14 29-20 61-20 57 0 334-27 412-41 90-15 119-26 154-61 44-43 67-92 93-195 19-77 22-115 22-298 0-142-6-250-18-335-9-68-18-125-19-126s-78 61-172 138c-93 77-178 146-188 153-16 11-20 36-28 180-5 93-10 170-12 172-5 4-500 104-503 100-1-1 2-25 8-52 6-32 7-122 2-245-18-437-1-664 70-935 63-242 90-285 196-320 51-17 53-17 64 1 23 40 35 81 35 132 1 28 4 52 9 52 4 0 82-36 174-79l166-78 60 32c82 44 148 94 209 158 45 48 53 62 69 133 29 122 26 662-4 984-46 472-136 1116-177 1257-17 59-68 117-107 125-14 3-44-1-67-8z"/></g><g fill="#d7dffd"><path d="M1965 10630c3-5 8-10 11-10s2 5-1 10c-3 6-8 10-11 10s-2-4 1-10zM3880 10400c0-7 3-10 7-7 3 4 3 10 0 14-4 3-7 0-7-7zM2315 10340c3-5 8-10 11-10s2 5-1 10c-3 6-8 10-11 10s-2-4 1-10zM3870 10340c0-7 3-10 7-7 3 4 3 10 0 14-4 3-7 0-7-7zM3860 10280c0-7 3-10 7-7 3 4 3 10 0 14-4 3-7 0-7-7zM4940 10260c0-7 3-10 7-7 3 4 3 10 0 14-4 3-7 0-7-7zM1915 10240c3-5 8-10 11-10s2 5-1 10c-3 6-8 10-11 10s-2-4 1-10zM4874 10228c-4-7-3-8 4-4s12 9 12 12c0 8-9 4-16-8zM4951 10224c0-11 3-14 6-6 3 7 2 16-1 19-3 4-6-2-5-13zM2455 10220c3-5 8-10 11-10s2 5-1 10c-3 6-8 10-11 10s-2-4 1-10zM3850 10210c0-7 3-10 7-7 3 4 3 10 0 14-4 3-7 0-7-7zM1985 10160c3-5 8-10 11-10s2 5-1 10c-3 6-8 10-11 10s-2-4 1-10zM2535 10150c3-5 8-10 11-10s2 5-1 10c-3 6-8 10-11 10s-2-4 1-10zM4950 10140c0-7 3-10 7-7 3 4 3 10 0 14-4 3-7 0-7-7zM4924 10078c-4-7-3-8 4-4 12 7 16 16 8 16-3 0-8-5-12-12zM2735 9970c3-5 8-10 11-10s2 5-1 10c-3 6-8 10-11 10s-2-4 1-10zM2165 9950c3-5 8-10 11-10s2 5-1 10c-3 6-8 10-11 10s-2-4 1-10zM2235 9870c3-5 8-10 11-10s2 5-1 10c-3 6-8 10-11 10s-2-4 1-10zM3005 9700c3-5 8-10 11-10s2 5-1 10c-3 6-8 10-11 10s-2-4 1-10zM4824 9608c-4-7-3-8 4-4 12 7 16 16 8 16-3 0-8-5-12-12zM2485 9580c3-5 8-10 11-10s2 5-1 10c-3 6-8 10-11 10s-2-4 1-10zM4784 9568c-4-7-3-8 4-4 12 7 16 16 8 16-3 0-8-5-12-12zM2514 9508c-4-7-3-8 4-4 12 7 16 16 8 16-3 0-8-5-12-12zM4773 9493c9-2 25-2 35 0 9 3 1 5-18 5s-27-2-17-5zM2434 9438c-4-7-3-8 4-4 12 7 16 16 8 16-3 0-8-5-12-12zM2279 9293l-24-28 28 24c25 23 32 31 24 31-2 0-14-12-28-27zM11817 9256c-102-42-166-107-212-214-19-45-20-72-23-816-2-734-2-768 15-761 10 5 52 10 93 13 99 5 171-21 238-86 74-74 97-129 97-237 0-80-3-96-28-139-15-27-26-51-24-52 7-8 1817-9 1817-2 0 4 10 7 23 6 58-4 181 77 231 154 69 106 67 70 64 1019l-3 854-22 55c-33 81-101 153-181 192l-67 33-980 2-980 3-58-24zm1593-520c-8-7-138-125-289-260-273-246-274-247-295-228-232 207-534 478-546 488-12 12 76 14 565 14 494 0 577-2 565-14zm-897-260c103-93 187-170 187-171 0-2-330-302-412-374l-38-33v814l38-33c20-19 121-110 225-203zm925-376l-3-198-219 198c-120 108-218 201-218 206 1 5 99 97 219 205l218 196 3-204c1-112 1-294 0-403zm-606 91c15-11 24-6 72 39l54 51 142-128 141-128-195-3c-107-1-285-1-395 0l-201 3 141 128 142 129 41-39c22-22 49-45 58-52zm528-271c56-52 63-62 50-74-8-8-139-109-290-224l-274-210-36 27c-19 15-143 110-275 211s-246 189-254 196c-12 11-5 22 50 73l64 60h900l65-59zM4633 9233c4-3 10-3 14 0 3 4 0 7-7 7s-10-3-7-7zM4733 9233c4-3 10-3 14 0 3 4 0 7-7 7s-10-3-7-7zM3504 9178c-4-7-3-8 4-4 12 7 16 16 8 16-3 0-8-5-12-12zM6404 9028l-29-33 33 29c30 28 37 36 29 36-2 0-16-15-33-32zM11040 9035c13-14 26-25 28-25 3 0-5 11-18 25s-26 25-28 25c-3 0 5-11 18-25zM4692 8950c0-14 2-19 5-12 2 6 2 18 0 25-3 6-5 1-5-13zM6344 8958c-4-7-3-8 4-4 12 7 16 16 8 16-3 0-8-5-12-12zM2118 8863c6-2 18-2 25 0 6 3 1 5-13 5s-19-2-12-5zM2185 8840c3-5 8-10 11-10s2 5-1 10c-3 6-8 10-11 10s-2-4 1-10zM4883 8803c4-3 10-3 14 0 3 4 0 7-7 7s-10-3-7-7zM6240 8720c0-7 3-10 7-7 3 4 3 10 0 14-4 3-7 0-7-7zM11210 8710c0-7 3-10 7-7 3 4 3 10 0 14-4 3-7 0-7-7zM6230 8640c0-7 3-10 7-7 3 4 3 10 0 14-4 3-7 0-7-7zM7178 7973c7-3 16-2 19 1 4 3-2 6-13 5-11 0-14-3-6-6zM7435 7850c3-5 8-10 11-10s2 5-1 10c-3 6-8 10-11 10s-2-4 1-10zM7773 7583c4-3 10-3 14 0 3 4 0 7-7 7s-10-3-7-7zM7724 7558c-4-7-3-8 4-4 12 7 16 16 8 16-3 0-8-5-12-12zM7702 7495c0-16 2-22 5-12 2 9 2 23 0 30-3 6-5-1-5-18zM6231 7474c0-11 3-14 6-6 3 7 2 16-1 19-3 4-6-2-5-13zM8984 7428c-4-7-3-8 4-4s12 9 12 12c0 8-9 4-16-8zM8068 7403c160-2 424-2 585 0 160 1 29 2-293 2s-453-1-292-2zM11210 7400c0-7 3-10 7-7 3 4 3 10 0 14-4 3-7 0-7-7zM7163 7323c9-2 25-2 35 0 9 3 1 5-18 5s-27-2-17-5zM12644 6898c-4-7-3-8 4-4s12 9 12 12c0 8-9 4-16-8zM13080 6900c0-7 3-10 7-7 3 4 3 10 0 14-4 3-7 0-7-7zM12644 6868c-4-7-3-8 4-4 12 7 16 16 8 16-3 0-8-5-12-12zM14065 6840c3-5 8-10 11-10s2 5-1 10c-3 6-8 10-11 10s-2-4 1-10zM12554 6798c-4-7-3-8 4-4 12 7 16 16 8 16-3 0-8-5-12-12zM14105 6800c3-5 8-10 11-10s2 5-1 10c-3 6-8 10-11 10s-2-4 1-10zM12364 6588c-4-7-3-8 4-4s12 9 12 12c0 8-9 4-16-8zM12374 6568c-4-7-3-8 4-4 12 7 16 16 8 16-3 0-8-5-12-12zM13365 6420c3-5 8-10 11-10s2 5-1 10c-3 6-8 10-11 10s-2-4 1-10zM8990 6300c0-7 3-10 7-7 3 4 3 10 0 14-4 3-7 0-7-7zM9000 6240c0-7 3-10 7-7 3 4 3 10 0 14-4 3-7 0-7-7zM3711 6171c26-33 30-43 20-55s4-24 86-72c214-124 252-158 309-277 33-70 46-147 23-147-6 0-29 16-52 35-43 37-150 95-175 95-12 0-14-11-9-56 7-63-5-106-26-98-8 3-27 29-42 57-31 57-222 317-233 317-4 0-23-20-42-45-19-24-37-44-40-44-3-1-18 26-34 60l-29 60-22-21-22-21-25 39c-14 21-54 70-88 109l-63 72-46-24c-65-33-131-94-168-156-64-107-63-92-63-959 0-433 3-789 6-792s33 8 66 26c55 28 70 31 147 31 73 0 94-4 136-27 65-33 127-96 157-156 19-39 23-63 23-145v-97h805c849 0 864 1 950 45 17 9 32 14 34 13 9-7 133 130 151 167 11 22 24 46 29 53 19 26 21 116 21 907v800l-23 56c-50 125-136 211-260 261l-57 23-738 3-739 3 33-40zm622-672c130-77 202-133 298-228 78-79 103-112 137-181 67-136 77-246 31-350-28-63-101-134-172-165-54-25-69-27-146-23-94 5-135 20-187 70l-32 30-45-35c-72-55-123-70-219-65-97 5-166 36-223 99-59 65-78 114-83 209-4 72 0 97 20 156 46 130 149 257 309 377 65 49 224 147 238 147 3 0 36-18 74-41zM14095 5970c3-5 8-10 11-10s2 5-1 10c-3 6-8 10-11 10s-2-4 1-10zM14475 5720c3-5 8-10 11-10s2 5-1 10c-3 6-8 10-11 10s-2-4 1-10zM13800 5550c0-7 3-10 7-7 3 4 3 10 0 14-4 3-7 0-7-7zM14590 5550c0-7 3-10 7-7 3 4 3 10 0 14-4 3-7 0-7-7zM13810 5500c0-7 3-10 7-7 3 4 3 10 0 14-4 3-7 0-7-7zM13883 5423c4-3 10-3 14 0 3 4 0 7-7 7s-10-3-7-7zM13953 5413c4-3 10-3 14 0 3 4 0 7-7 7s-10-3-7-7zM14570 5390c0-7 3-10 7-7 3 4 3 10 0 14-4 3-7 0-7-7zM14590 5390c0-7 3-10 7-7 3 4 3 10 0 14-4 3-7 0-7-7zM14013 5383c4-3 10-3 14 0 3 4 0 7-7 7s-10-3-7-7zM14083 5373c4-3 10-3 14 0 3 4 0 7-7 7s-10-3-7-7zM13860 5360c0-7 3-10 7-7 3 4 3 10 0 14-4 3-7 0-7-7zM14163 5363c4-3 10-3 14 0 3 4 0 7-7 7s-10-3-7-7zM14233 5353c4-3 10-3 14 0 3 4 0 7-7 7s-10-3-7-7zM14580 5330c0-7 3-10 7-7 3 4 3 10 0 14-4 3-7 0-7-7zM13870 5300c0-7 3-10 7-7 3 4 3 10 0 14-4 3-7 0-7-7zM12883 5173c4-3 10-3 14 0 3 4 0 7-7 7s-10-3-7-7zM12973 5123c4-3 10-3 14 0 3 4 0 7-7 7s-10-3-7-7zM13575 5040c3-5 8-10 11-10s2 5-1 10c-3 6-8 10-11 10s-2-4 1-10zM13920 4940c0-7 3-10 7-7 3 4 3 10 0 14-4 3-7 0-7-7zM14080 4570c0-7 3-10 7-7 3 4 3 10 0 14-4 3-7 0-7-7zM14115 4570c3-5 8-10 11-10s2 5-1 10c-3 6-8 10-11 10s-2-4 1-10zM14060 4560c0-7 3-10 7-7 3 4 3 10 0 14-4 3-7 0-7-7zM14460 4510c0-7 3-10 7-7 3 4 3 10 0 14-4 3-7 0-7-7zM14090 4500c0-7 3-10 7-7 3 4 3 10 0 14-4 3-7 0-7-7zM14070 4490c0-7 3-10 7-7 3 4 3 10 0 14-4 3-7 0-7-7zM14205 4460c10-11 20-20 23-20s-3 9-13 20-20 20-23 20 3-9 13-20zM14220 4418c41-45 50-53 50-45 0 2-21 23-47 47l-48 45 45-47zM14100 4430c0-7 3-10 7-7 3 4 3 10 0 14-4 3-7 0-7-7zM13935 4380c3-5 8-10 11-10s2 5-1 10c-3 6-8 10-11 10s-2-4 1-10zM14285 4380c3-5 8-10 11-10s2 5-1 10c-3 6-8 10-11 10s-2-4 1-10zM14090 4360c0-7 3-10 7-7 3 4 3 10 0 14-4 3-7 0-7-7zM14110 4360c0-7 3-10 7-7 3 4 3 10 0 14-4 3-7 0-7-7zM14253 4163c4-3 10-3 14 0 3 4 0 7-7 7s-10-3-7-7zM14353 4163c4-3 10-3 14 0 3 4 0 7-7 7s-10-3-7-7zM9078 4063c7-3 16-2 19 1 4 3-2 6-13 5-11 0-14-3-6-6zM9218 4053c7-3 16-2 19 1 4 3-2 6-13 5-11 0-14-3-6-6zM8934 4038c-4-7-3-8 4-4s12 9 12 12c0 8-9 4-16-8zM9373 4043c4-3 10-3 14 0 3 4 0 7-7 7s-10-3-7-7zM9803 4013c4-3 10-3 14 0 3 4 0 7-7 7s-10-3-7-7zM7408 3023c7-3 16-2 19 1 4 3-2 6-13 5-11 0-14-3-6-6zM7324 2988c-4-7-3-8 4-4s12 9 12 12c0 8-9 4-16-8zM7434 2898l-19-23 23 19c21 18 27 26 19 26-2 0-12-10-23-22zM7363 2853c4-3 10-3 14 0 3 4 0 7-7 7s-10-3-7-7zM9113 2443c15-2 37-2 50 0 12 2 0 4-28 4-27 0-38-2-22-4zM9033 2433c4-3 10-3 14 0 3 4 0 7-7 7s-10-3-7-7zM9223 2433c4-3 10-3 14 0 3 4 0 7-7 7s-10-3-7-7zM8889 2353l-24-28 28 24c15 14 27 26 27 28 0 8-8 1-31-24zM9149 2293l-24-28 28 24c25 23 32 31 24 31-2 0-14-12-28-27zM8044 1958c-4-7-3-8 4-4 12 7 16 16 8 16-3 0-8-5-12-12zM7984 1898c-4-7-3-8 4-4 12 7 16 16 8 16-3 0-8-5-12-12zM7910 1880c0-7 3-10 7-7 3 4 3 10 0 14-4 3-7 0-7-7z"/></g></svg>